# MagicaVoxel @ Ephtracy

# group
o 

# material
mtllib 3x3x3Color.mtl
usemtl palette

# normals
vn -1 0 0
vn 1 0 0
vn 0 0 1
vn 0 0 -1
vn 0 -1 0
vn 0 1 0

# texcoords
vt 0.0605469 0.5
vt 0.330078 0.5

# verts
v 0 0.1 0
v 0 0.1 -0.3
v 0 0.2 -0.1
v 0 0.2 -0.2
v 0 0.3 -0.1
v 0 0.3 -0.2
v 0 0.4 0
v 0 0.4 -0.3
v 0.2 0.1 -0.1
v 0.2 0.1 -0.2
v 0.2 0.2 0
v 0.2 0.2 -0.1
v 0.2 0.2 -0.2
v 0.2 0.2 -0.3
v 0.2 0.3 0
v 0.2 0.3 -0.1
v 0.2 0.3 -0.2
v 0.2 0.3 -0.3
v 0.2 0.4 -0.1
v 0.2 0.4 -0.2
v 0.1 0.1 -0.1
v 0.1 0.1 -0.2
v 0.1 0.2 0
v 0.1 0.2 -0.1
v 0.1 0.2 -0.2
v 0.1 0.2 -0.3
v 0.1 0.3 0
v 0.1 0.3 -0.1
v 0.1 0.3 -0.2
v 0.1 0.3 -0.3
v 0.1 0.4 -0.1
v 0.1 0.4 -0.2
v 0.3 0.1 0
v 0.3 0.1 -0.1
v 0.3 0.1 -0.3
v 0.3 0.2 -0.1
v 0.3 0.2 -0.2
v 0.3 0.3 -0.1
v 0.3 0.3 -0.2
v 0.3 0.4 0
v 0.3 0.4 -0.1
v 0.3 0.4 -0.3
v 0 0.1 0
v 0 0.4 0
v 0.1 0.1 0
v 0.1 0.2 0
v 0.1 0.3 0
v 0.2 0.2 0
v 0.2 0.3 0
v 0.2 0.4 0
v 0.3 0.1 0
v 0.3 0.4 0
v 0 0.2 -0.2
v 0 0.3 -0.2
v 0.1 0.1 -0.2
v 0.1 0.2 -0.2
v 0.1 0.3 -0.2
v 0.1 0.4 -0.2
v 0.2 0.1 -0.2
v 0.2 0.2 -0.2
v 0.2 0.3 -0.2
v 0.2 0.4 -0.2
v 0.3 0.2 -0.2
v 0.3 0.3 -0.2
v 0 0.2 -0.1
v 0 0.3 -0.1
v 0.1 0.1 -0.1
v 0.1 0.2 -0.1
v 0.1 0.3 -0.1
v 0.1 0.4 -0.1
v 0.2 0.1 -0.1
v 0.2 0.2 -0.1
v 0.2 0.3 -0.1
v 0.2 0.4 -0.1
v 0.3 0.2 -0.1
v 0.3 0.3 -0.1
v 0 0.1 -0.3
v 0 0.4 -0.3
v 0.1 0.2 -0.3
v 0.1 0.3 -0.3
v 0.2 0.2 -0.3
v 0.2 0.3 -0.3
v 0.3 0.1 -0.3
v 0.3 0.4 -0.3
v 0 0.1 0
v 0.1 0.1 0
v 0.3 0.1 0
v 0.1 0.1 -0.1
v 0.2 0.1 -0.1
v 0.3 0.1 -0.1
v 0.1 0.1 -0.2
v 0.2 0.1 -0.2
v 0 0.1 -0.3
v 0.3 0.1 -0.3
v 0.1 0.3 0
v 0.2 0.3 0
v 0 0.3 -0.1
v 0.1 0.3 -0.1
v 0.2 0.3 -0.1
v 0.3 0.3 -0.1
v 0 0.3 -0.2
v 0.1 0.3 -0.2
v 0.2 0.3 -0.2
v 0.3 0.3 -0.2
v 0.1 0.3 -0.3
v 0.2 0.3 -0.3
v 0.1 0.2 0
v 0.2 0.2 0
v 0 0.2 -0.1
v 0.1 0.2 -0.1
v 0.2 0.2 -0.1
v 0.3 0.2 -0.1
v 0 0.2 -0.2
v 0.1 0.2 -0.2
v 0.2 0.2 -0.2
v 0.3 0.2 -0.2
v 0.1 0.2 -0.3
v 0.2 0.2 -0.3
v 0 0.4 0
v 0.2 0.4 0
v 0.3 0.4 0
v 0.1 0.4 -0.1
v 0.2 0.4 -0.1
v 0.3 0.4 -0.1
v 0.1 0.4 -0.2
v 0.2 0.4 -0.2
v 0 0.4 -0.3
v 0.3 0.4 -0.3

# faces
f 3/2/1 2/2/1 1/2/1
f 4/2/1 2/2/1 3/2/1
f 5/2/1 3/2/1 1/2/1
f 6/2/1 2/2/1 4/2/1
f 7/2/1 5/2/1 1/2/1
f 7/2/1 6/2/1 5/2/1
f 8/2/1 2/2/1 6/2/1
f 8/2/1 6/2/1 7/2/1
f 12/2/1 10/2/1 9/2/1
f 13/2/1 10/2/1 12/2/1
f 15/1/1 12/1/1 11/1/1
f 16/1/1 12/1/1 15/1/1
f 17/2/1 14/2/1 13/2/1
f 18/2/1 14/2/1 17/2/1
f 19/2/1 17/2/1 16/2/1
f 20/2/1 17/2/1 19/2/1
f 21/2/2 22/2/2 24/2/2
f 24/2/2 22/2/2 25/2/2
f 23/2/2 24/2/2 27/2/2
f 27/2/2 24/2/2 28/2/2
f 25/2/2 26/2/2 29/2/2
f 29/2/2 26/2/2 30/2/2
f 28/2/2 29/2/2 31/2/2
f 31/2/2 29/2/2 32/2/2
f 33/1/2 34/1/2 36/1/2
f 34/2/2 35/2/2 36/2/2
f 36/2/2 35/2/2 37/2/2
f 33/1/2 36/1/2 38/1/2
f 37/2/2 35/2/2 39/2/2
f 33/1/2 38/1/2 40/1/2
f 38/2/2 39/2/2 41/2/2
f 40/1/2 38/1/2 41/1/2
f 39/2/2 35/2/2 42/2/2
f 41/2/2 39/2/2 42/2/2
f 45/2/3 44/2/3 43/2/3
f 46/2/3 44/2/3 45/2/3
f 47/2/3 44/2/3 46/2/3
f 48/1/3 46/1/3 45/1/3
f 49/2/3 44/2/3 47/2/3
f 50/2/3 44/2/3 49/2/3
f 51/1/3 48/1/3 45/1/3
f 51/1/3 49/1/3 48/1/3
f 51/1/3 50/1/3 49/1/3
f 52/1/3 50/1/3 51/1/3
f 56/2/3 54/2/3 53/2/3
f 57/2/3 54/2/3 56/2/3
f 59/2/3 56/2/3 55/2/3
f 60/2/3 56/2/3 59/2/3
f 61/2/3 58/2/3 57/2/3
f 62/2/3 58/2/3 61/2/3
f 63/2/3 61/2/3 60/2/3
f 64/2/3 61/2/3 63/2/3
f 65/2/4 66/2/4 68/2/4
f 68/2/4 66/2/4 69/2/4
f 67/1/4 68/1/4 71/1/4
f 71/1/4 68/1/4 72/1/4
f 69/2/4 70/2/4 73/2/4
f 73/2/4 70/2/4 74/2/4
f 72/1/4 73/1/4 75/1/4
f 75/1/4 73/1/4 76/1/4
f 77/2/4 78/2/4 79/2/4
f 79/2/4 78/2/4 80/2/4
f 77/2/4 79/2/4 81/2/4
f 80/2/4 78/2/4 82/2/4
f 77/2/4 81/2/4 83/2/4
f 81/2/4 82/2/4 83/2/4
f 82/2/4 78/2/4 84/2/4
f 83/2/4 82/2/4 84/2/4
f 88/2/5 86/2/5 85/2/5
f 88/1/5 87/1/5 86/1/5
f 89/1/5 87/1/5 88/1/5
f 90/1/5 87/1/5 89/1/5
f 91/2/5 88/2/5 85/2/5
f 92/2/5 90/2/5 89/2/5
f 93/2/5 91/2/5 85/2/5
f 93/2/5 92/2/5 91/2/5
f 94/2/5 90/2/5 92/2/5
f 94/2/5 92/2/5 93/2/5
f 98/2/5 96/2/5 95/2/5
f 99/2/5 96/2/5 98/2/5
f 101/2/5 98/2/5 97/2/5
f 102/2/5 98/2/5 101/2/5
f 103/2/5 100/2/5 99/2/5
f 104/2/5 100/2/5 103/2/5
f 105/2/5 103/2/5 102/2/5
f 106/2/5 103/2/5 105/2/5
f 107/1/6 108/1/6 110/1/6
f 110/1/6 108/1/6 111/1/6
f 109/2/6 110/2/6 113/2/6
f 113/2/6 110/2/6 114/2/6
f 111/2/6 112/2/6 115/2/6
f 115/2/6 112/2/6 116/2/6
f 114/2/6 115/2/6 117/2/6
f 117/2/6 115/2/6 118/2/6
f 119/2/6 120/2/6 122/2/6
f 120/1/6 121/1/6 123/1/6
f 122/2/6 120/2/6 123/2/6
f 123/1/6 121/1/6 124/1/6
f 119/2/6 122/2/6 125/2/6
f 123/2/6 124/2/6 126/2/6
f 119/2/6 125/2/6 127/2/6
f 125/2/6 126/2/6 127/2/6
f 126/2/6 124/2/6 128/2/6
f 127/2/6 126/2/6 128/2/6
