# MagicaVoxel @ Ephtracy

# group
o 

# material
mtllib burger.mtl
usemtl palette

# normals
vn -1 0 0
vn 1 0 0
vn 0 0 1
vn 0 0 -1
vn 0 -1 0
vn 0 1 0

# texcoords
vt 0.0175781 0.5
vt 0.0410156 0.5
vt 0.0683594 0.5
vt 0.537109 0.5
vt 0.841797 0.5
vt 0.986328 0.5

# verts
v 0.2 2.6 -0.3
v 0.2 2.6 -1.3
v 0.2 2.7 -0.3
v 0.2 2.7 -1.3
v 0.3 2.2 -0.4
v 0.3 2.2 -0.9
v 0.3 2.2 -1
v 0.3 2.2 -1.2
v 0.3 2.3 -0.3
v 0.3 2.3 -0.4
v 0.3 2.3 -0.9
v 0.3 2.3 -1
v 0.3 2.3 -1.2
v 0.3 2.3 -1.3
v 0.3 2.4 -0.3
v 0.3 2.4 -0.4
v 0.3 2.4 -1.2
v 0.3 2.4 -1.3
v 0.3 2.6 -0.2
v 0.3 2.6 -0.3
v 0.3 2.6 -0.4
v 0.3 2.6 -1.2
v 0.3 2.6 -1.3
v 0.3 2.6 -1.4
v 0.3 2.7 -0.2
v 0.3 2.7 -0.3
v 0.3 2.7 -1.3
v 0.3 2.7 -1.4
v 0.3 2.8 -0.3
v 0.3 2.8 -1.3
v 0.3 2.9 -0.3
v 0.3 2.9 -0.4
v 0.3 2.9 -0.7
v 0.3 2.9 -0.8
v 0.3 2.9 -1.2
v 0.3 2.9 -1.3
v 0.3 3 -0.4
v 0.3 3 -0.7
v 0.3 3 -0.8
v 0.3 3 -1.2
v 0.4 2.1 -0.4
v 0.4 2.1 -1.2
v 0.4 2.2 -0.3
v 0.4 2.2 -0.4
v 0.4 2.2 -0.9
v 0.4 2.2 -1
v 0.4 2.2 -1.2
v 0.4 2.2 -1.3
v 0.4 2.3 -0.3
v 0.4 2.3 -0.4
v 0.4 2.3 -1.2
v 0.4 2.3 -1.3
v 0.4 2.4 -0.3
v 0.4 2.4 -0.4
v 0.4 2.4 -1.2
v 0.4 2.4 -1.3
v 0.4 2.6 -0.3
v 0.4 2.6 -0.4
v 0.4 2.6 -1.2
v 0.4 2.6 -1.3
v 0.4 2.7 -0.4
v 0.4 2.7 -1.2
v 0.4 2.8 -0.4
v 0.4 2.8 -1.2
v 0.4 2.9 -0.3
v 0.4 2.9 -0.4
v 0.4 2.9 -1.2
v 0.4 2.9 -1.3
v 0.4 3 -0.3
v 0.4 3 -0.4
v 0.4 3 -0.7
v 0.4 3 -0.8
v 0.4 3 -1.2
v 0.4 3 -1.3
v 0.4 3.1 -0.4
v 0.4 3.1 -1.2
v 1.2 2.1 -0.4
v 1.2 2.1 -1.2
v 1.2 2.2 -0.3
v 1.2 2.2 -0.4
v 1.2 2.2 -1.2
v 1.2 2.2 -1.3
v 1.2 2.3 -0.3
v 1.2 2.3 -0.4
v 1.2 2.3 -1.2
v 1.2 2.3 -1.3
v 1.2 2.4 -0.3
v 1.2 2.4 -0.4
v 1.2 2.4 -1.2
v 1.2 2.4 -1.3
v 1.2 2.6 -0.3
v 1.2 2.6 -0.4
v 1.2 2.6 -1.2
v 1.2 2.6 -1.3
v 1.2 2.7 -0.4
v 1.2 2.7 -1.2
v 1.2 2.8 -0.4
v 1.2 2.8 -0.8
v 1.2 2.8 -0.9
v 1.2 2.8 -1.2
v 1.2 2.9 -0.3
v 1.2 2.9 -0.4
v 1.2 2.9 -1.2
v 1.2 2.9 -1.3
v 1.2 3 -0.3
v 1.2 3 -0.4
v 1.2 3 -1
v 1.2 3 -1.1
v 1.2 3 -1.2
v 1.2 3 -1.3
v 1.2 3.1 -0.4
v 1.2 3.1 -1.2
v 1.3 2.2 -0.4
v 1.3 2.2 -1.2
v 1.3 2.3 -0.3
v 1.3 2.3 -0.4
v 1.3 2.3 -0.8
v 1.3 2.3 -0.9
v 1.3 2.3 -1.2
v 1.3 2.3 -1.3
v 1.3 2.4 -0.3
v 1.3 2.4 -0.4
v 1.3 2.4 -0.8
v 1.3 2.4 -0.9
v 1.3 2.4 -1.2
v 1.3 2.4 -1.3
v 1.3 2.6 -0.2
v 1.3 2.6 -0.3
v 1.3 2.6 -0.4
v 1.3 2.6 -1.2
v 1.3 2.6 -1.3
v 1.3 2.6 -1.4
v 1.3 2.7 -0.2
v 1.3 2.7 -0.3
v 1.3 2.7 -1.3
v 1.3 2.7 -1.4
v 1.3 2.8 -0.3
v 1.3 2.8 -0.8
v 1.3 2.8 -0.9
v 1.3 2.8 -1.3
v 1.3 2.9 -0.3
v 1.3 2.9 -0.4
v 1.3 2.9 -0.8
v 1.3 2.9 -0.9
v 1.3 2.9 -1
v 1.3 2.9 -1.1
v 1.3 2.9 -1.2
v 1.3 2.9 -1.3
v 1.3 3 -0.4
v 1.3 3 -1
v 1.3 3 -1.1
v 1.3 3 -1.2
v 1.4 2.6 -0.3
v 1.4 2.6 -1.3
v 1.4 2.7 -0.3
v 1.4 2.7 -1.3
v 0.3 2.6 -0.2
v 0.3 2.7 -0.2
v 1.3 2.6 -0.2
v 1.3 2.7 -0.2
v 0.2 2.6 -0.3
v 0.2 2.7 -0.3
v 0.3 2.3 -0.3
v 0.3 2.4 -0.3
v 0.3 2.6 -0.3
v 0.3 2.7 -0.3
v 0.3 2.8 -0.3
v 0.3 2.9 -0.3
v 0.4 2.2 -0.3
v 0.4 2.3 -0.3
v 0.4 2.4 -0.3
v 0.4 2.6 -0.3
v 0.4 2.9 -0.3
v 0.4 3 -0.3
v 0.6 2.8 -0.3
v 0.6 2.9 -0.3
v 0.7 2.2 -0.3
v 0.7 2.3 -0.3
v 0.7 2.8 -0.3
v 0.7 2.9 -0.3
v 0.8 2.2 -0.3
v 0.8 2.3 -0.3
v 1.2 2.2 -0.3
v 1.2 2.3 -0.3
v 1.2 2.4 -0.3
v 1.2 2.6 -0.3
v 1.2 2.9 -0.3
v 1.2 3 -0.3
v 1.3 2.3 -0.3
v 1.3 2.4 -0.3
v 1.3 2.6 -0.3
v 1.3 2.7 -0.3
v 1.3 2.8 -0.3
v 1.3 2.9 -0.3
v 1.4 2.6 -0.3
v 1.4 2.7 -0.3
v 0.3 2.2 -0.4
v 0.3 2.3 -0.4
v 0.3 2.4 -0.4
v 0.3 2.6 -0.4
v 0.3 2.9 -0.4
v 0.3 3 -0.4
v 0.4 2.1 -0.4
v 0.4 2.2 -0.4
v 0.4 2.3 -0.4
v 0.4 2.4 -0.4
v 0.4 2.6 -0.4
v 0.4 2.7 -0.4
v 0.4 2.8 -0.4
v 0.4 2.9 -0.4
v 0.4 3 -0.4
v 0.4 3.1 -0.4
v 0.6 2.8 -0.4
v 0.7 2.2 -0.4
v 0.7 2.8 -0.4
v 0.8 2.2 -0.4
v 1 3 -0.4
v 1 3.1 -0.4
v 1.1 3 -0.4
v 1.1 3.1 -0.4
v 1.2 2.1 -0.4
v 1.2 2.2 -0.4
v 1.2 2.3 -0.4
v 1.2 2.4 -0.4
v 1.2 2.6 -0.4
v 1.2 2.7 -0.4
v 1.2 2.8 -0.4
v 1.2 2.9 -0.4
v 1.2 3 -0.4
v 1.2 3.1 -0.4
v 1.3 2.2 -0.4
v 1.3 2.3 -0.4
v 1.3 2.4 -0.4
v 1.3 2.6 -0.4
v 1.3 2.9 -0.4
v 1.3 3 -0.4
v 0.3 2.2 -1.2
v 0.3 2.3 -1.2
v 0.3 2.4 -1.2
v 0.3 2.6 -1.2
v 0.3 2.9 -1.2
v 0.3 3 -1.2
v 0.4 2.1 -1.2
v 0.4 2.2 -1.2
v 0.4 2.3 -1.2
v 0.4 2.4 -1.2
v 0.4 2.6 -1.2
v 0.4 2.7 -1.2
v 0.4 2.8 -1.2
v 0.4 2.9 -1.2
v 0.4 3 -1.2
v 0.4 3.1 -1.2
v 1.2 2.1 -1.2
v 1.2 2.2 -1.2
v 1.2 2.3 -1.2
v 1.2 2.4 -1.2
v 1.2 2.6 -1.2
v 1.2 2.7 -1.2
v 1.2 2.8 -1.2
v 1.2 2.9 -1.2
v 1.2 3 -1.2
v 1.2 3.1 -1.2
v 1.3 2.2 -1.2
v 1.3 2.3 -1.2
v 1.3 2.4 -1.2
v 1.3 2.6 -1.2
v 1.3 2.9 -1.2
v 1.3 3 -1.2
v 0.2 2.6 -1.3
v 0.2 2.7 -1.3
v 0.3 2.3 -1.3
v 0.3 2.4 -1.3
v 0.3 2.6 -1.3
v 0.3 2.7 -1.3
v 0.3 2.8 -1.3
v 0.3 2.9 -1.3
v 0.4 2.2 -1.3
v 0.4 2.3 -1.3
v 0.4 2.4 -1.3
v 0.4 2.6 -1.3
v 0.4 2.9 -1.3
v 0.4 3 -1.3
v 0.5 2.3 -1.3
v 0.5 2.4 -1.3
v 0.6 2.3 -1.3
v 0.6 2.4 -1.3
v 1.2 2.2 -1.3
v 1.2 2.3 -1.3
v 1.2 2.4 -1.3
v 1.2 2.6 -1.3
v 1.2 2.9 -1.3
v 1.2 3 -1.3
v 1.3 2.3 -1.3
v 1.3 2.4 -1.3
v 1.3 2.6 -1.3
v 1.3 2.7 -1.3
v 1.3 2.8 -1.3
v 1.3 2.9 -1.3
v 1.4 2.6 -1.3
v 1.4 2.7 -1.3
v 0.3 2.6 -1.4
v 0.3 2.7 -1.4
v 1.3 2.6 -1.4
v 1.3 2.7 -1.4
v 0.4 2.1 -0.4
v 1.2 2.1 -0.4
v 0.4 2.1 -1.2
v 1.2 2.1 -1.2
v 0.4 2.2 -0.3
v 0.7 2.2 -0.3
v 0.8 2.2 -0.3
v 1.2 2.2 -0.3
v 0.3 2.2 -0.4
v 0.4 2.2 -0.4
v 0.7 2.2 -0.4
v 0.8 2.2 -0.4
v 1.2 2.2 -0.4
v 1.3 2.2 -0.4
v 0.3 2.2 -0.9
v 0.4 2.2 -0.9
v 0.3 2.2 -1
v 0.4 2.2 -1
v 0.3 2.2 -1.2
v 0.4 2.2 -1.2
v 1.2 2.2 -1.2
v 1.3 2.2 -1.2
v 0.4 2.2 -1.3
v 1.2 2.2 -1.3
v 0.3 2.3 -0.3
v 0.4 2.3 -0.3
v 1.2 2.3 -0.3
v 1.3 2.3 -0.3
v 0.3 2.3 -0.4
v 0.4 2.3 -0.4
v 1.2 2.3 -0.4
v 1.3 2.3 -0.4
v 0.3 2.3 -1.2
v 0.4 2.3 -1.2
v 1.2 2.3 -1.2
v 1.3 2.3 -1.2
v 0.3 2.3 -1.3
v 0.4 2.3 -1.3
v 1.2 2.3 -1.3
v 1.3 2.3 -1.3
v 0.3 2.6 -0.2
v 1.3 2.6 -0.2
v 0.2 2.6 -0.3
v 0.3 2.6 -0.3
v 0.4 2.6 -0.3
v 1.2 2.6 -0.3
v 1.3 2.6 -0.3
v 1.4 2.6 -0.3
v 0.3 2.6 -0.4
v 0.4 2.6 -0.4
v 1.2 2.6 -0.4
v 1.3 2.6 -0.4
v 0.3 2.6 -1.2
v 0.4 2.6 -1.2
v 1.2 2.6 -1.2
v 1.3 2.6 -1.2
v 0.2 2.6 -1.3
v 0.3 2.6 -1.3
v 0.4 2.6 -1.3
v 1.2 2.6 -1.3
v 1.3 2.6 -1.3
v 1.4 2.6 -1.3
v 0.3 2.6 -1.4
v 1.3 2.6 -1.4
v 0.3 2.8 -0.3
v 0.6 2.8 -0.3
v 0.7 2.8 -0.3
v 1.3 2.8 -0.3
v 0.4 2.8 -0.4
v 0.6 2.8 -0.4
v 0.7 2.8 -0.4
v 1.2 2.8 -0.4
v 1.2 2.8 -0.8
v 1.3 2.8 -0.8
v 1.2 2.8 -0.9
v 1.3 2.8 -0.9
v 0.4 2.8 -1.2
v 1.2 2.8 -1.2
v 0.3 2.8 -1.3
v 1.3 2.8 -1.3
v 0.3 2.4 -0.3
v 0.4 2.4 -0.3
v 1.2 2.4 -0.3
v 1.3 2.4 -0.3
v 0.3 2.4 -0.4
v 0.4 2.4 -0.4
v 1.2 2.4 -0.4
v 1.3 2.4 -0.4
v 0.3 2.4 -1.2
v 0.4 2.4 -1.2
v 1.2 2.4 -1.2
v 1.3 2.4 -1.2
v 0.3 2.4 -1.3
v 0.4 2.4 -1.3
v 1.2 2.4 -1.3
v 1.3 2.4 -1.3
v 0.3 2.7 -0.2
v 1.3 2.7 -0.2
v 0.2 2.7 -0.3
v 0.3 2.7 -0.3
v 1.3 2.7 -0.3
v 1.4 2.7 -0.3
v 0.4 2.7 -0.4
v 1.2 2.7 -0.4
v 0.4 2.7 -1.2
v 1.2 2.7 -1.2
v 0.2 2.7 -1.3
v 0.3 2.7 -1.3
v 1.3 2.7 -1.3
v 1.4 2.7 -1.3
v 0.3 2.7 -1.4
v 1.3 2.7 -1.4
v 0.3 2.9 -0.3
v 0.4 2.9 -0.3
v 1.2 2.9 -0.3
v 1.3 2.9 -0.3
v 0.3 2.9 -0.4
v 0.4 2.9 -0.4
v 1.2 2.9 -0.4
v 1.3 2.9 -0.4
v 0.3 2.9 -1.2
v 0.4 2.9 -1.2
v 1.2 2.9 -1.2
v 1.3 2.9 -1.2
v 0.3 2.9 -1.3
v 0.4 2.9 -1.3
v 1.2 2.9 -1.3
v 1.3 2.9 -1.3
v 0.4 3 -0.3
v 1.2 3 -0.3
v 0.3 3 -0.4
v 0.4 3 -0.4
v 1 3 -0.4
v 1.1 3 -0.4
v 1.2 3 -0.4
v 1.3 3 -0.4
v 0.3 3 -0.7
v 0.4 3 -0.7
v 0.3 3 -0.8
v 0.4 3 -0.8
v 1.2 3 -1
v 1.3 3 -1
v 1.2 3 -1.1
v 1.3 3 -1.1
v 0.3 3 -1.2
v 0.4 3 -1.2
v 1.2 3 -1.2
v 1.3 3 -1.2
v 0.4 3 -1.3
v 1.2 3 -1.3
v 0.4 3.1 -0.4
v 1 3.1 -0.4
v 1.1 3.1 -0.4
v 1.2 3.1 -0.4
v 0.6 3.1 -0.5
v 0.7 3.1 -0.5
v 1 3.1 -0.5
v 1.1 3.1 -0.5
v 0.6 3.1 -0.6
v 0.7 3.1 -0.6
v 0.8 3.1 -0.7
v 0.9 3.1 -0.7
v 0.8 3.1 -0.8
v 0.9 3.1 -0.8
v 0.5 3.1 -1
v 0.6 3.1 -1
v 1 3.1 -1
v 1.1 3.1 -1
v 0.5 3.1 -1.1
v 0.6 3.1 -1.1
v 1 3.1 -1.1
v 1.1 3.1 -1.1
v 0.4 3.1 -1.2
v 1.2 3.1 -1.2

# faces
f 3/1/1 2/1/1 1/1/1
f 4/1/1 2/1/1 3/1/1
f 10/3/1 6/3/1 5/3/1
f 11/2/1 7/2/1 6/2/1
f 11/3/1 6/3/1 10/3/1
f 12/3/1 8/3/1 7/3/1
f 12/2/1 7/2/1 11/2/1
f 13/3/1 8/3/1 12/3/1
f 15/2/1 10/2/1 9/2/1
f 16/3/1 11/3/1 10/3/1
f 16/2/1 10/2/1 15/2/1
f 16/3/1 14/3/1 13/3/1
f 16/3/1 13/3/1 12/3/1
f 16/3/1 12/3/1 11/3/1
f 17/3/1 14/3/1 16/3/1
f 18/3/1 14/3/1 17/3/1
f 21/4/1 17/4/1 16/4/1
f 22/4/1 17/4/1 21/4/1
f 25/1/1 20/1/1 19/1/1
f 26/1/1 20/1/1 25/1/1
f 27/1/1 24/1/1 23/1/1
f 28/1/1 24/1/1 27/1/1
f 31/3/1 30/3/1 29/3/1
f 32/3/1 30/3/1 31/3/1
f 33/3/1 30/3/1 32/3/1
f 34/3/1 30/3/1 33/3/1
f 35/3/1 30/3/1 34/3/1
f 36/3/1 30/3/1 35/3/1
f 37/3/1 33/3/1 32/3/1
f 38/2/1 34/2/1 33/2/1
f 38/3/1 33/3/1 37/3/1
f 39/3/1 35/3/1 34/3/1
f 39/2/1 34/2/1 38/2/1
f 40/3/1 35/3/1 39/3/1
f 44/3/1 42/3/1 41/3/1
f 45/3/1 42/3/1 44/3/1
f 46/3/1 42/3/1 45/3/1
f 47/3/1 42/3/1 46/3/1
f 49/3/1 44/3/1 43/3/1
f 50/3/1 44/3/1 49/3/1
f 51/3/1 48/3/1 47/3/1
f 52/3/1 48/3/1 51/3/1
f 57/4/1 54/4/1 53/4/1
f 58/4/1 54/4/1 57/4/1
f 59/4/1 56/4/1 55/4/1
f 60/4/1 56/4/1 59/4/1
f 63/5/1 62/5/1 61/5/1
f 64/5/1 62/5/1 63/5/1
f 69/3/1 66/3/1 65/3/1
f 70/3/1 66/3/1 69/3/1
f 73/3/1 68/3/1 67/3/1
f 74/3/1 68/3/1 73/3/1
f 75/3/1 72/3/1 71/3/1
f 75/3/1 73/3/1 72/3/1
f 75/3/1 71/3/1 70/3/1
f 76/3/1 73/3/1 75/3/1
f 77/3/2 78/3/2 80/3/2
f 80/3/2 78/3/2 81/3/2
f 79/3/2 80/3/2 83/3/2
f 83/3/2 80/3/2 84/3/2
f 81/3/2 82/3/2 85/3/2
f 85/3/2 82/3/2 86/3/2
f 87/4/2 88/4/2 91/4/2
f 91/4/2 88/4/2 92/4/2
f 89/4/2 90/4/2 93/4/2
f 93/4/2 90/4/2 94/4/2
f 95/5/2 96/5/2 97/5/2
f 97/5/2 96/5/2 98/5/2
f 98/5/2 96/5/2 99/5/2
f 99/5/2 96/5/2 100/5/2
f 101/3/2 102/3/2 105/3/2
f 105/3/2 102/3/2 106/3/2
f 103/3/2 104/3/2 109/3/2
f 109/3/2 104/3/2 110/3/2
f 107/3/2 108/3/2 111/3/2
f 108/3/2 109/3/2 111/3/2
f 106/3/2 107/3/2 111/3/2
f 111/3/2 109/3/2 112/3/2
f 113/3/2 114/3/2 116/3/2
f 116/3/2 114/3/2 117/3/2
f 117/3/2 114/3/2 118/3/2
f 118/3/2 114/3/2 119/3/2
f 115/3/2 116/3/2 121/3/2
f 116/3/2 117/3/2 121/3/2
f 121/3/2 117/3/2 122/3/2
f 117/2/2 118/2/2 123/2/2
f 122/3/2 117/3/2 123/3/2
f 119/3/2 120/3/2 124/3/2
f 123/2/2 118/2/2 124/2/2
f 118/3/2 119/3/2 124/3/2
f 124/3/2 120/3/2 125/3/2
f 125/3/2 120/3/2 126/3/2
f 122/4/2 123/4/2 129/4/2
f 123/4/2 124/4/2 129/4/2
f 124/4/2 125/4/2 129/4/2
f 129/4/2 125/4/2 130/4/2
f 127/1/2 128/1/2 133/1/2
f 133/1/2 128/1/2 134/1/2
f 131/1/2 132/1/2 135/1/2
f 135/1/2 132/1/2 136/1/2
f 137/3/2 138/3/2 141/3/2
f 141/3/2 138/3/2 142/3/2
f 138/2/2 139/2/2 143/2/2
f 142/3/2 138/3/2 143/3/2
f 139/3/2 140/3/2 144/3/2
f 143/2/2 139/2/2 144/2/2
f 144/3/2 140/3/2 145/3/2
f 145/3/2 140/3/2 146/3/2
f 146/3/2 140/3/2 147/3/2
f 147/3/2 140/3/2 148/3/2
f 142/3/2 143/3/2 149/3/2
f 143/3/2 144/3/2 149/3/2
f 144/3/2 145/3/2 149/3/2
f 145/2/2 146/2/2 150/2/2
f 149/3/2 145/3/2 150/3/2
f 146/3/2 147/3/2 151/3/2
f 150/2/2 146/2/2 151/2/2
f 151/3/2 147/3/2 152/3/2
f 153/1/2 154/1/2 155/1/2
f 155/1/2 154/1/2 156/1/2
f 159/1/3 158/1/3 157/1/3
f 160/1/3 158/1/3 159/1/3
f 165/1/3 162/1/3 161/1/3
f 166/1/3 162/1/3 165/1/3
f 170/2/3 164/2/3 163/2/3
f 171/2/3 164/2/3 170/2/3
f 173/3/3 168/3/3 167/3/3
f 175/3/3 173/3/3 167/3/3
f 175/3/3 174/3/3 173/3/3
f 176/3/3 174/3/3 175/3/3
f 177/3/3 170/3/3 169/3/3
f 177/3/3 171/3/3 170/3/3
f 178/3/3 171/3/3 177/3/3
f 179/2/3 176/2/3 175/2/3
f 180/3/3 174/3/3 176/3/3
f 180/2/3 176/2/3 179/2/3
f 181/2/3 178/2/3 177/2/3
f 182/3/3 171/3/3 178/3/3
f 182/2/3 178/2/3 181/2/3
f 183/3/3 182/3/3 181/3/3
f 184/3/3 171/3/3 182/3/3
f 184/3/3 182/3/3 183/3/3
f 185/4/3 172/4/3 171/4/3
f 185/3/3 171/3/3 184/3/3
f 186/4/3 172/4/3 185/4/3
f 187/3/3 174/3/3 180/3/3
f 187/3/3 180/3/3 179/3/3
f 188/3/3 174/3/3 187/3/3
f 189/3/3 185/3/3 184/3/3
f 190/3/3 185/3/3 189/3/3
f 193/3/3 187/3/3 179/3/3
f 194/3/3 187/3/3 193/3/3
f 195/1/3 192/1/3 191/1/3
f 196/1/3 192/1/3 195/1/3
f 204/3/3 198/3/3 197/3/3
f 205/3/3 198/3/3 204/3/3
f 206/4/3 200/4/3 199/4/3
f 207/4/3 200/4/3 206/4/3
f 210/3/3 202/3/3 201/3/3
f 211/3/3 202/3/3 210/3/3
f 213/5/3 209/5/3 208/5/3
f 214/3/3 204/3/3 203/3/3
f 215/5/3 213/5/3 208/5/3
f 216/3/3 214/3/3 203/3/3
f 217/3/3 212/3/3 211/3/3
f 218/3/3 212/3/3 217/3/3
f 219/2/3 218/2/3 217/2/3
f 220/2/3 218/2/3 219/2/3
f 221/3/3 216/3/3 203/3/3
f 222/3/3 216/3/3 221/3/3
f 226/5/3 215/5/3 208/5/3
f 227/5/3 215/5/3 226/5/3
f 229/3/3 220/3/3 219/3/3
f 230/3/3 220/3/3 229/3/3
f 231/3/3 223/3/3 222/3/3
f 232/3/3 223/3/3 231/3/3
f 233/4/3 225/4/3 224/4/3
f 234/4/3 225/4/3 233/4/3
f 235/3/3 229/3/3 228/3/3
f 236/3/3 229/3/3 235/3/3
f 237/3/4 238/3/4 244/3/4
f 244/3/4 238/3/4 245/3/4
f 239/4/4 240/4/4 246/4/4
f 246/4/4 240/4/4 247/4/4
f 241/3/4 242/3/4 250/3/4
f 250/3/4 242/3/4 251/3/4
f 243/3/4 244/3/4 253/3/4
f 253/3/4 244/3/4 254/3/4
f 248/5/4 249/5/4 258/5/4
f 258/5/4 249/5/4 259/5/4
f 251/3/4 252/3/4 261/3/4
f 261/3/4 252/3/4 262/3/4
f 254/3/4 255/3/4 263/3/4
f 263/3/4 255/3/4 264/3/4
f 256/4/4 257/4/4 265/4/4
f 265/4/4 257/4/4 266/4/4
f 260/3/4 261/3/4 267/3/4
f 267/3/4 261/3/4 268/3/4
f 269/1/4 270/1/4 273/1/4
f 273/1/4 270/1/4 274/1/4
f 271/3/4 272/3/4 278/3/4
f 278/3/4 272/3/4 279/3/4
f 275/3/4 276/3/4 281/3/4
f 277/3/4 278/3/4 283/3/4
f 278/3/4 279/3/4 283/3/4
f 279/4/4 280/4/4 284/4/4
f 283/3/4 279/3/4 284/3/4
f 277/3/4 283/3/4 285/3/4
f 283/2/4 284/2/4 285/2/4
f 284/4/4 280/4/4 286/4/4
f 285/2/4 284/2/4 286/2/4
f 277/3/4 285/3/4 287/3/4
f 285/3/4 286/3/4 287/3/4
f 287/3/4 286/3/4 288/3/4
f 286/4/4 280/4/4 289/4/4
f 288/3/4 286/3/4 289/3/4
f 289/4/4 280/4/4 290/4/4
f 281/3/4 282/3/4 291/3/4
f 275/3/4 281/3/4 291/3/4
f 291/3/4 282/3/4 292/3/4
f 288/3/4 289/3/4 293/3/4
f 293/3/4 289/3/4 294/3/4
f 275/3/4 291/3/4 297/3/4
f 297/3/4 291/3/4 298/3/4
f 295/1/4 296/1/4 299/1/4
f 299/1/4 296/1/4 300/1/4
f 301/1/4 302/1/4 303/1/4
f 303/1/4 302/1/4 304/1/4
f 307/3/5 306/3/5 305/3/5
f 308/3/5 306/3/5 307/3/5
f 314/3/5 310/3/5 309/3/5
f 315/2/5 311/2/5 310/2/5
f 315/3/5 310/3/5 314/3/5
f 316/3/5 312/3/5 311/3/5
f 316/2/5 311/2/5 315/2/5
f 317/3/5 312/3/5 316/3/5
f 319/3/5 314/3/5 313/3/5
f 320/3/5 314/3/5 319/3/5
f 321/2/5 320/2/5 319/2/5
f 322/2/5 320/2/5 321/2/5
f 323/3/5 322/3/5 321/3/5
f 324/3/5 322/3/5 323/3/5
f 325/3/5 318/3/5 317/3/5
f 326/3/5 318/3/5 325/3/5
f 327/3/5 325/3/5 324/3/5
f 328/3/5 325/3/5 327/3/5
f 333/2/5 330/2/5 329/2/5
f 334/2/5 330/2/5 333/2/5
f 335/3/5 332/3/5 331/3/5
f 336/3/5 332/3/5 335/3/5
f 341/3/5 338/3/5 337/3/5
f 342/3/5 338/3/5 341/3/5
f 343/3/5 340/3/5 339/3/5
f 344/3/5 340/3/5 343/3/5
f 348/1/5 346/1/5 345/1/5
f 349/1/5 346/1/5 348/1/5
f 350/1/5 346/1/5 349/1/5
f 351/1/5 346/1/5 350/1/5
f 353/1/5 348/1/5 347/1/5
f 353/1/5 349/1/5 348/1/5
f 354/1/5 349/1/5 353/1/5
f 355/1/5 352/1/5 351/1/5
f 355/1/5 351/1/5 350/1/5
f 356/1/5 352/1/5 355/1/5
f 357/1/5 353/1/5 347/1/5
f 360/1/5 352/1/5 356/1/5
f 361/1/5 358/1/5 357/1/5
f 361/1/5 357/1/5 347/1/5
f 362/1/5 358/1/5 361/1/5
f 363/1/5 358/1/5 362/1/5
f 364/1/5 360/1/5 359/1/5
f 365/1/5 352/1/5 360/1/5
f 365/1/5 360/1/5 364/1/5
f 366/1/5 352/1/5 365/1/5
f 367/1/5 363/1/5 362/1/5
f 367/1/5 364/1/5 363/1/5
f 367/1/5 365/1/5 364/1/5
f 368/1/5 365/1/5 367/1/5
f 373/3/5 370/3/5 369/3/5
f 374/2/5 371/2/5 370/2/5
f 374/3/5 370/3/5 373/3/5
f 375/3/5 372/3/5 371/3/5
f 375/2/5 371/2/5 374/2/5
f 376/3/5 372/3/5 375/3/5
f 377/3/5 372/3/5 376/3/5
f 378/3/5 372/3/5 377/3/5
f 379/2/5 378/2/5 377/2/5
f 380/2/5 378/2/5 379/2/5
f 381/3/5 373/3/5 369/3/5
f 382/3/5 380/3/5 379/3/5
f 383/3/5 381/3/5 369/3/5
f 383/3/5 382/3/5 381/3/5
f 384/3/5 380/3/5 382/3/5
f 384/3/5 382/3/5 383/3/5
f 385/2/6 386/2/6 389/2/6
f 389/2/6 386/2/6 390/2/6
f 387/3/6 388/3/6 391/3/6
f 391/3/6 388/3/6 392/3/6
f 393/3/6 394/3/6 397/3/6
f 397/3/6 394/3/6 398/3/6
f 395/3/6 396/3/6 399/3/6
f 399/3/6 396/3/6 400/3/6
f 401/1/6 402/1/6 404/1/6
f 404/1/6 402/1/6 405/1/6
f 403/1/6 404/1/6 407/1/6
f 405/1/6 406/1/6 407/1/6
f 404/1/6 405/1/6 407/1/6
f 407/1/6 406/1/6 408/1/6
f 403/1/6 407/1/6 409/1/6
f 408/1/6 406/1/6 410/1/6
f 403/1/6 409/1/6 411/1/6
f 409/1/6 410/1/6 411/1/6
f 411/1/6 410/1/6 412/1/6
f 410/1/6 406/1/6 413/1/6
f 412/1/6 410/1/6 413/1/6
f 413/1/6 406/1/6 414/1/6
f 412/1/6 413/1/6 415/1/6
f 415/1/6 413/1/6 416/1/6
f 417/3/6 418/3/6 421/3/6
f 421/3/6 418/3/6 422/3/6
f 419/3/6 420/3/6 423/3/6
f 423/3/6 420/3/6 424/3/6
f 425/3/6 426/3/6 429/3/6
f 429/3/6 426/3/6 430/3/6
f 427/3/6 428/3/6 431/3/6
f 431/3/6 428/3/6 432/3/6
f 433/3/6 434/3/6 436/3/6
f 436/3/6 434/3/6 437/3/6
f 437/3/6 434/3/6 438/3/6
f 438/3/6 434/3/6 439/3/6
f 435/3/6 436/3/6 441/3/6
f 441/3/6 436/3/6 442/3/6
f 441/2/6 442/2/6 443/2/6
f 443/2/6 442/2/6 444/2/6
f 439/3/6 440/3/6 445/3/6
f 445/3/6 440/3/6 446/3/6
f 445/2/6 446/2/6 447/2/6
f 447/2/6 446/2/6 448/2/6
f 443/3/6 444/3/6 449/3/6
f 449/3/6 444/3/6 450/3/6
f 447/3/6 448/3/6 451/3/6
f 451/3/6 448/3/6 452/3/6
f 450/3/6 451/3/6 453/3/6
f 453/3/6 451/3/6 454/3/6
f 455/3/6 456/3/6 459/3/6
f 459/3/6 456/3/6 460/3/6
f 456/2/6 457/2/6 461/2/6
f 460/3/6 456/3/6 461/3/6
f 457/3/6 458/3/6 462/3/6
f 461/2/6 457/2/6 462/2/6
f 459/2/6 460/2/6 463/2/6
f 455/3/6 459/3/6 463/3/6
f 460/3/6 461/3/6 464/3/6
f 463/2/6 460/2/6 464/2/6
f 461/3/6 462/3/6 464/3/6
f 463/3/6 464/3/6 465/3/6
f 464/3/6 462/3/6 465/3/6
f 465/3/6 462/3/6 466/3/6
f 463/3/6 465/3/6 467/3/6
f 465/2/6 466/2/6 467/2/6
f 466/3/6 462/3/6 468/3/6
f 467/2/6 466/2/6 468/2/6
f 455/3/6 463/3/6 469/3/6
f 463/3/6 467/3/6 469/3/6
f 467/3/6 468/3/6 469/3/6
f 469/3/6 468/3/6 470/3/6
f 468/3/6 462/3/6 471/3/6
f 470/3/6 468/3/6 471/3/6
f 462/3/6 458/3/6 472/3/6
f 471/3/6 462/3/6 472/3/6
f 469/2/6 470/2/6 473/2/6
f 455/3/6 469/3/6 473/3/6
f 470/3/6 471/3/6 474/3/6
f 473/2/6 470/2/6 474/2/6
f 471/2/6 472/2/6 475/2/6
f 474/3/6 471/3/6 475/3/6
f 472/3/6 458/3/6 476/3/6
f 475/2/6 472/2/6 476/2/6
f 474/3/6 475/3/6 477/3/6
f 455/3/6 473/3/6 477/3/6
f 475/3/6 476/3/6 477/3/6
f 473/3/6 474/3/6 477/3/6
f 476/3/6 458/3/6 478/3/6
f 477/3/6 476/3/6 478/3/6
