# MagicaVoxel @ Ephtracy

# group
o 

# material
mtllib cutting-board.mtl
usemtl palette

# normals
vn -1 0 0
vn 1 0 0
vn 0 0 1
vn 0 0 -1
vn 0 -1 0
vn 0 1 0

# texcoords
vt 0.0332031 0.5
vt 0.0605469 0.5

# verts
v -2 2 1.7
v -2 2 0.8
v -2 2.1 1.7
v -2 2.1 0.8
v -1.7 2 2
v -1.7 2 1.7
v -1.7 2.1 2
v -1.7 2.1 1.7
v -1.4 2 2
v -1.4 2 1.7
v -1.4 2.1 2
v -1.4 2.1 1.7
v -1.1 2 1.7
v -1.1 2 0.8
v -1.1 2.1 1.7
v -1.1 2.1 0.8
v -1.7 2 2
v -1.7 2.1 2
v -1.6 2 2
v -1.6 2.1 2
v -1.5 2 2
v -1.5 2.1 2
v -1.4 2 2
v -1.4 2.1 2
v -2 2 1.7
v -2 2.1 1.7
v -1.9 2 1.7
v -1.9 2.1 1.7
v -1.8 2 1.7
v -1.8 2.1 1.7
v -1.7 2 1.7
v -1.7 2.1 1.7
v -1.4 2 1.7
v -1.4 2.1 1.7
v -1.3 2 1.7
v -1.3 2.1 1.7
v -1.2 2 1.7
v -1.2 2.1 1.7
v -1.1 2 1.7
v -1.1 2.1 1.7
v -2 2 0.8
v -2 2.1 0.8
v -1.9 2 0.8
v -1.9 2.1 0.8
v -1.8 2 0.8
v -1.8 2.1 0.8
v -1.7 2 0.8
v -1.7 2.1 0.8
v -1.6 2 0.8
v -1.6 2.1 0.8
v -1.5 2 0.8
v -1.5 2.1 0.8
v -1.4 2 0.8
v -1.4 2.1 0.8
v -1.3 2 0.8
v -1.3 2.1 0.8
v -1.2 2 0.8
v -1.2 2.1 0.8
v -1.1 2 0.8
v -1.1 2.1 0.8
v -1.7 2 2
v -1.6 2 2
v -1.5 2 2
v -1.4 2 2
v -2 2 1.7
v -1.9 2 1.7
v -1.8 2 1.7
v -1.7 2 1.7
v -1.4 2 1.7
v -1.3 2 1.7
v -1.2 2 1.7
v -1.1 2 1.7
v -2 2 0.8
v -1.9 2 0.8
v -1.8 2 0.8
v -1.7 2 0.8
v -1.6 2 0.8
v -1.5 2 0.8
v -1.4 2 0.8
v -1.3 2 0.8
v -1.2 2 0.8
v -1.1 2 0.8
v -1.7 2.1 2
v -1.6 2.1 2
v -1.5 2.1 2
v -1.4 2.1 2
v -2 2.1 1.7
v -1.9 2.1 1.7
v -1.8 2.1 1.7
v -1.7 2.1 1.7
v -1.4 2.1 1.7
v -1.3 2.1 1.7
v -1.2 2.1 1.7
v -1.1 2.1 1.7
v -2 2.1 0.8
v -1.9 2.1 0.8
v -1.8 2.1 0.8
v -1.7 2.1 0.8
v -1.6 2.1 0.8
v -1.5 2.1 0.8
v -1.4 2.1 0.8
v -1.3 2.1 0.8
v -1.2 2.1 0.8
v -1.1 2.1 0.8

# faces
f 3/1/1 2/1/1 1/1/1
f 4/1/1 2/1/1 3/1/1
f 7/2/1 6/2/1 5/2/1
f 8/2/1 6/2/1 7/2/1
f 9/2/2 10/2/2 11/2/2
f 11/2/2 10/2/2 12/2/2
f 13/1/2 14/1/2 15/1/2
f 15/1/2 14/1/2 16/1/2
f 19/2/3 18/2/3 17/2/3
f 20/2/3 18/2/3 19/2/3
f 21/1/3 20/1/3 19/1/3
f 22/1/3 20/1/3 21/1/3
f 23/2/3 22/2/3 21/2/3
f 24/2/3 22/2/3 23/2/3
f 27/1/3 26/1/3 25/1/3
f 28/1/3 26/1/3 27/1/3
f 29/2/3 28/2/3 27/2/3
f 30/2/3 28/2/3 29/2/3
f 31/1/3 30/1/3 29/1/3
f 32/1/3 30/1/3 31/1/3
f 35/1/3 34/1/3 33/1/3
f 36/1/3 34/1/3 35/1/3
f 37/2/3 36/2/3 35/2/3
f 38/2/3 36/2/3 37/2/3
f 39/1/3 38/1/3 37/1/3
f 40/1/3 38/1/3 39/1/3
f 41/1/4 42/1/4 43/1/4
f 43/1/4 42/1/4 44/1/4
f 43/2/4 44/2/4 45/2/4
f 45/2/4 44/2/4 46/2/4
f 45/1/4 46/1/4 47/1/4
f 47/1/4 46/1/4 48/1/4
f 47/2/4 48/2/4 49/2/4
f 49/2/4 48/2/4 50/2/4
f 49/1/4 50/1/4 51/1/4
f 51/1/4 50/1/4 52/1/4
f 51/2/4 52/2/4 53/2/4
f 53/2/4 52/2/4 54/2/4
f 53/1/4 54/1/4 55/1/4
f 55/1/4 54/1/4 56/1/4
f 55/2/4 56/2/4 57/2/4
f 57/2/4 56/2/4 58/2/4
f 57/1/4 58/1/4 59/1/4
f 59/1/4 58/1/4 60/1/4
f 68/2/5 62/2/5 61/2/5
f 69/2/5 64/2/5 63/2/5
f 73/1/5 66/1/5 65/1/5
f 74/2/5 67/2/5 66/2/5
f 74/1/5 66/1/5 73/1/5
f 75/1/5 68/1/5 67/1/5
f 75/2/5 67/2/5 74/2/5
f 76/2/5 62/2/5 68/2/5
f 76/1/5 68/1/5 75/1/5
f 77/1/5 63/1/5 62/1/5
f 77/2/5 62/2/5 76/2/5
f 78/2/5 69/2/5 63/2/5
f 78/1/5 63/1/5 77/1/5
f 79/1/5 70/1/5 69/1/5
f 79/2/5 69/2/5 78/2/5
f 80/2/5 71/2/5 70/2/5
f 80/1/5 70/1/5 79/1/5
f 81/1/5 72/1/5 71/1/5
f 81/2/5 71/2/5 80/2/5
f 82/1/5 72/1/5 81/1/5
f 83/2/6 84/2/6 90/2/6
f 85/2/6 86/2/6 91/2/6
f 87/1/6 88/1/6 95/1/6
f 88/2/6 89/2/6 96/2/6
f 95/1/6 88/1/6 96/1/6
f 89/1/6 90/1/6 97/1/6
f 96/2/6 89/2/6 97/2/6
f 90/2/6 84/2/6 98/2/6
f 97/1/6 90/1/6 98/1/6
f 84/1/6 85/1/6 99/1/6
f 98/2/6 84/2/6 99/2/6
f 85/2/6 91/2/6 100/2/6
f 99/1/6 85/1/6 100/1/6
f 91/1/6 92/1/6 101/1/6
f 100/2/6 91/2/6 101/2/6
f 92/2/6 93/2/6 102/2/6
f 101/1/6 92/1/6 102/1/6
f 93/1/6 94/1/6 103/1/6
f 102/2/6 93/2/6 103/2/6
f 103/1/6 94/1/6 104/1/6
