# MagicaVoxel @ Ephtracy

# group
o 

# material
mtllib cuttingboard.mtl
usemtl palette

# normals
vn -1 0 0
vn 1 0 0
vn 0 0 1
vn 0 0 -1
vn 0 -1 0
vn 0 1 0

# texcoords
vt 0.0332031 0.5
vt 0.0371094 0.5
vt 0.0410156 0.5

# verts
v 0 2 -0.8
v 0 2 -1
v 0 2 -1.2
v 0 2 -1.4
v 0 2.2 -0.8
v 0 2.2 -1
v 0 2.2 -1.2
v 0 2.2 -1.4
v 0.3 2 -1
v 0.3 2 -1.2
v 0.3 2.1 -1
v 0.3 2.1 -1.2
v 0.3 2.2 -1
v 0.3 2.2 -1.2
v 0.6 2 0
v 0.6 2 -0.2
v 0.6 2 -0.4
v 0.6 2 -0.6
v 0.6 2 -0.8
v 0.6 2 -1.4
v 0.6 2 -1.6
v 0.6 2 -1.8
v 0.6 2 -2
v 0.6 2 -2.2
v 0.6 2.2 0
v 0.6 2.2 -0.2
v 0.6 2.2 -0.4
v 0.6 2.2 -0.6
v 0.6 2.2 -0.8
v 0.6 2.2 -1.4
v 0.6 2.2 -1.6
v 0.6 2.2 -1.8
v 0.6 2.2 -2
v 0.6 2.2 -2.2
v 0.1 2 -1
v 0.1 2 -1.2
v 0.1 2.2 -1
v 0.1 2.2 -1.2
v 3.6 2 0
v 3.6 2 -0.2
v 3.6 2 -0.4
v 3.6 2 -0.6
v 3.6 2 -0.8
v 3.6 2 -1
v 3.6 2 -1.5
v 3.6 2 -1.6
v 3.6 2 -1.8
v 3.6 2 -2
v 3.6 2 -2.2
v 3.6 2.1 -1.4
v 3.6 2.1 -1.5
v 3.6 2.2 0
v 3.6 2.2 -0.2
v 3.6 2.2 -0.4
v 3.6 2.2 -0.6
v 3.6 2.2 -0.8
v 3.6 2.2 -1
v 3.6 2.2 -1.4
v 3.6 2.2 -1.6
v 3.6 2.2 -1.8
v 3.6 2.2 -2
v 3.6 2.2 -2.2
v 0.6 2 0
v 0.6 2.2 0
v 2.5 2 0
v 2.5 2.2 0
v 3.6 2 0
v 3.6 2.2 0
v 0 2 -0.8
v 0 2.2 -0.8
v 0.6 2 -0.8
v 0.6 2.2 -0.8
v 0.1 2 -1.2
v 0.1 2.2 -1.2
v 0.3 2 -1.2
v 0.3 2.1 -1.2
v 0.3 2.2 -1.2
v 0.1 2 -1
v 0.1 2.2 -1
v 0.3 2 -1
v 0.3 2.1 -1
v 0.3 2.2 -1
v 0 2 -1.4
v 0 2.2 -1.4
v 0.6 2 -1.4
v 0.6 2.2 -1.4
v 0.6 2 -2.2
v 0.6 2.2 -2.2
v 1.5 2.1 -2.2
v 1.5 2.2 -2.2
v 1.6 2 -2.2
v 1.6 2.1 -2.2
v 2.9 2 -2.2
v 2.9 2.2 -2.2
v 3.6 2 -2.2
v 3.6 2.2 -2.2
v 0.6 2 0
v 2.5 2 0
v 3.6 2 0
v 2.5 2 -0.1
v 3.5 2 -0.1
v 0.6 2 -0.2
v 0.7 2 -0.2
v 3 2 -0.2
v 3.5 2 -0.2
v 3.6 2 -0.2
v 0.6 2 -0.4
v 0.7 2 -0.4
v 3.5 2 -0.4
v 3.6 2 -0.4
v 0.6 2 -0.6
v 0.7 2 -0.6
v 3.5 2 -0.6
v 3.6 2 -0.6
v 0.7 2 -0.7
v 0.8 2 -0.7
v 0 2 -0.8
v 0.6 2 -0.8
v 0.7 2 -0.8
v 0.8 2 -0.8
v 1 2 -0.8
v 3.5 2 -0.8
v 3.6 2 -0.8
v 0 2 -1
v 0.1 2 -1
v 0.3 2 -1
v 1 2 -1
v 3.5 2 -1
v 3.6 2 -1
v 0 2 -1.2
v 0.1 2 -1.2
v 0.3 2 -1.2
v 0 2 -1.4
v 0.6 2 -1.4
v 3.5 2 -1.5
v 3.6 2 -1.5
v 0.6 2 -1.6
v 0.7 2 -1.6
v 3.5 2 -1.6
v 3.6 2 -1.6
v 0.6 2 -1.8
v 0.7 2 -1.8
v 3.5 2 -1.8
v 3.6 2 -1.8
v 0.7 2 -1.9
v 3 2 -1.9
v 0.6 2 -2
v 0.7 2 -2
v 3.5 2 -2
v 3.6 2 -2
v 0.7 2 -2.1
v 1.6 2 -2.1
v 2.9 2 -2.1
v 3.5 2 -2.1
v 0.6 2 -2.2
v 1.6 2 -2.2
v 2.9 2 -2.2
v 3.6 2 -2.2
v 0.6 2.2 0
v 2.5 2.2 0
v 3.6 2.2 0
v 0.6 2.2 -0.2
v 1.7 2.2 -0.2
v 2.5 2.2 -0.2
v 3 2.2 -0.2
v 3.6 2.2 -0.2
v 0.6 2.2 -0.4
v 1.1 2.2 -0.4
v 1.7 2.2 -0.4
v 2.5 2.2 -0.4
v 3 2.2 -0.4
v 3.6 2.2 -0.4
v 0.6 2.2 -0.6
v 1.1 2.2 -0.6
v 2 2.2 -0.6
v 2.5 2.2 -0.6
v 3 2.2 -0.6
v 3.6 2.2 -0.6
v 0 2.2 -0.8
v 0.6 2.2 -0.8
v 1.3 2.2 -0.8
v 2 2.2 -0.8
v 3 2.2 -0.8
v 3.6 2.2 -0.8
v 0 2.2 -1
v 0.1 2.2 -1
v 0.3 2.2 -1
v 1 2.2 -1
v 1.3 2.2 -1
v 2 2.2 -1
v 2.3 2.2 -1
v 3.4 2.2 -1
v 3.6 2.2 -1
v 0 2.2 -1.2
v 0.1 2.2 -1.2
v 0.3 2.2 -1.2
v 0.6 2.2 -1.2
v 1 2.2 -1.2
v 2.1 2.2 -1.2
v 2.3 2.2 -1.2
v 3.4 2.2 -1.2
v 0 2.2 -1.4
v 0.6 2.2 -1.4
v 2.1 2.2 -1.4
v 2.7 2.2 -1.4
v 3.6 2.2 -1.4
v 0.6 2.2 -1.6
v 1.8 2.2 -1.6
v 2.7 2.2 -1.6
v 3.1 2.2 -1.6
v 3.6 2.2 -1.6
v 0.6 2.2 -1.8
v 1.8 2.2 -1.8
v 2.1 2.2 -1.8
v 3.1 2.2 -1.8
v 3.3 2.2 -1.8
v 3.6 2.2 -1.8
v 0.6 2.2 -2
v 1.5 2.2 -2
v 2.1 2.2 -2
v 2.9 2.2 -2
v 3.3 2.2 -2
v 3.6 2.2 -2
v 0.6 2.2 -2.2
v 1.5 2.2 -2.2
v 2.9 2.2 -2.2
v 3.6 2.2 -2.2

# faces
f 5/2/1 2/2/1 1/2/1
f 6/3/1 3/3/1 2/3/1
f 6/2/1 2/2/1 5/2/1
f 7/1/1 4/1/1 3/1/1
f 7/3/1 3/3/1 6/3/1
f 8/1/1 4/1/1 7/1/1
f 11/1/1 10/1/1 9/1/1
f 12/1/1 10/1/1 11/1/1
f 13/3/1 12/3/1 11/3/1
f 14/3/1 12/3/1 13/3/1
f 25/2/1 16/2/1 15/2/1
f 26/3/1 17/3/1 16/3/1
f 26/2/1 16/2/1 25/2/1
f 27/1/1 18/1/1 17/1/1
f 27/3/1 17/3/1 26/3/1
f 28/3/1 19/3/1 18/3/1
f 28/1/1 18/1/1 27/1/1
f 29/3/1 19/3/1 28/3/1
f 30/1/1 21/1/1 20/1/1
f 31/2/1 22/2/1 21/2/1
f 31/1/1 21/1/1 30/1/1
f 32/3/1 23/3/1 22/3/1
f 32/2/1 22/2/1 31/2/1
f 33/1/1 24/1/1 23/1/1
f 33/3/1 23/3/1 32/3/1
f 34/1/1 24/1/1 33/1/1
f 35/3/2 36/3/2 37/3/2
f 37/3/2 36/3/2 38/3/2
f 44/2/2 45/2/2 50/2/2
f 45/3/2 46/3/2 51/3/2
f 50/2/2 45/2/2 51/2/2
f 39/3/2 40/3/2 52/3/2
f 40/2/2 41/2/2 53/2/2
f 52/3/2 40/3/2 53/3/2
f 41/3/2 42/3/2 54/3/2
f 53/2/2 41/2/2 54/2/2
f 42/2/2 43/2/2 55/2/2
f 54/3/2 42/3/2 55/3/2
f 43/3/2 44/3/2 56/3/2
f 55/2/2 43/2/2 56/2/2
f 44/2/2 50/2/2 57/2/2
f 56/3/2 44/3/2 57/3/2
f 50/3/2 51/3/2 58/3/2
f 57/2/2 50/2/2 58/2/2
f 51/3/2 46/3/2 59/3/2
f 58/3/2 51/3/2 59/3/2
f 46/1/2 47/1/2 59/1/2
f 47/2/2 48/2/2 60/2/2
f 59/1/2 47/1/2 60/1/2
f 48/3/2 49/3/2 61/3/2
f 60/2/2 48/2/2 61/2/2
f 61/3/2 49/3/2 62/3/2
f 65/2/3 64/2/3 63/2/3
f 66/2/3 64/2/3 65/2/3
f 67/3/3 66/3/3 65/3/3
f 68/3/3 66/3/3 67/3/3
f 71/2/3 70/2/3 69/2/3
f 72/2/3 70/2/3 71/2/3
f 75/1/3 74/1/3 73/1/3
f 76/1/3 74/1/3 75/1/3
f 77/1/3 74/1/3 76/1/3
f 78/2/4 79/2/4 80/2/4
f 80/2/4 79/2/4 81/2/4
f 81/2/4 79/2/4 82/2/4
f 83/1/4 84/1/4 85/1/4
f 85/1/4 84/1/4 86/1/4
f 87/1/4 88/1/4 89/1/4
f 89/1/4 88/1/4 90/1/4
f 87/1/4 89/1/4 91/1/4
f 89/2/4 90/2/4 92/2/4
f 91/1/4 89/1/4 92/1/4
f 91/2/4 92/2/4 93/2/4
f 92/2/4 90/2/4 94/2/4
f 93/2/4 92/2/4 94/2/4
f 93/3/4 94/3/4 95/3/4
f 95/3/4 94/3/4 96/3/4
f 100/2/5 98/2/5 97/2/5
f 100/3/5 99/3/5 98/3/5
f 101/3/5 99/3/5 100/3/5
f 102/2/5 100/2/5 97/2/5
f 102/2/5 101/2/5 100/2/5
f 103/2/5 101/2/5 102/2/5
f 104/2/5 101/2/5 103/2/5
f 105/3/5 99/3/5 101/3/5
f 105/2/5 101/2/5 104/2/5
f 106/3/5 99/3/5 105/3/5
f 107/3/5 103/3/5 102/3/5
f 108/1/5 104/1/5 103/1/5
f 108/3/5 103/3/5 107/3/5
f 109/2/5 105/2/5 104/2/5
f 109/2/5 106/2/5 105/2/5
f 110/2/5 106/2/5 109/2/5
f 111/1/5 108/1/5 107/1/5
f 112/1/5 104/1/5 108/1/5
f 112/1/5 108/1/5 111/1/5
f 113/2/5 109/2/5 104/2/5
f 113/3/5 110/3/5 109/3/5
f 114/3/5 110/3/5 113/3/5
f 115/1/5 104/1/5 112/1/5
f 115/3/5 112/3/5 111/3/5
f 116/1/5 104/1/5 115/1/5
f 118/3/5 115/3/5 111/3/5
f 119/2/5 116/2/5 115/2/5
f 119/3/5 115/3/5 118/3/5
f 120/1/5 104/1/5 116/1/5
f 120/2/5 116/2/5 119/2/5
f 121/1/5 104/1/5 120/1/5
f 122/2/5 114/2/5 113/2/5
f 122/2/5 113/2/5 104/2/5
f 123/2/5 114/2/5 122/2/5
f 124/2/5 121/2/5 120/2/5
f 124/2/5 119/2/5 118/2/5
f 124/2/5 118/2/5 117/2/5
f 124/2/5 120/2/5 119/2/5
f 125/2/5 121/2/5 124/2/5
f 126/2/5 121/2/5 125/2/5
f 127/1/5 104/1/5 121/1/5
f 127/2/5 121/2/5 126/2/5
f 128/3/5 123/3/5 122/3/5
f 128/2/5 122/2/5 104/2/5
f 129/3/5 123/3/5 128/3/5
f 130/3/5 125/3/5 124/3/5
f 131/3/5 125/3/5 130/3/5
f 132/1/5 127/1/5 126/1/5
f 133/1/5 131/1/5 130/1/5
f 133/1/5 132/1/5 131/1/5
f 134/1/5 127/1/5 132/1/5
f 134/1/5 132/1/5 133/1/5
f 135/2/5 129/2/5 128/2/5
f 135/2/5 128/2/5 104/2/5
f 136/2/5 129/2/5 135/2/5
f 137/1/5 127/1/5 134/1/5
f 138/1/5 127/1/5 137/1/5
f 139/2/5 135/2/5 104/2/5
f 139/3/5 136/3/5 135/3/5
f 140/3/5 136/3/5 139/3/5
f 141/2/5 138/2/5 137/2/5
f 142/1/5 127/1/5 138/1/5
f 142/2/5 138/2/5 141/2/5
f 143/2/5 139/2/5 104/2/5
f 143/1/5 140/1/5 139/1/5
f 144/1/5 140/1/5 143/1/5
f 145/1/5 127/1/5 142/1/5
f 145/3/5 142/3/5 141/3/5
f 146/1/5 104/1/5 127/1/5
f 146/1/5 127/1/5 145/1/5
f 146/2/5 144/2/5 143/2/5
f 146/2/5 143/2/5 104/2/5
f 147/3/5 145/3/5 141/3/5
f 148/2/5 146/2/5 145/2/5
f 148/3/5 145/3/5 147/3/5
f 149/2/5 144/2/5 146/2/5
f 149/2/5 146/2/5 148/2/5
f 150/2/5 144/2/5 149/2/5
f 151/1/5 148/1/5 147/1/5
f 151/2/5 149/2/5 148/2/5
f 152/2/5 149/2/5 151/2/5
f 153/2/5 149/2/5 152/2/5
f 154/3/5 150/3/5 149/3/5
f 154/2/5 149/2/5 153/2/5
f 155/1/5 151/1/5 147/1/5
f 155/1/5 152/1/5 151/1/5
f 156/2/5 153/2/5 152/2/5
f 156/1/5 152/1/5 155/1/5
f 157/3/5 154/3/5 153/3/5
f 157/2/5 153/2/5 156/2/5
f 158/3/5 150/3/5 154/3/5
f 158/3/5 154/3/5 157/3/5
f 159/2/6 160/2/6 162/2/6
f 162/2/6 160/2/6 163/2/6
f 160/3/6 161/3/6 164/3/6
f 163/2/6 160/2/6 164/2/6
f 164/3/6 161/3/6 165/3/6
f 165/3/6 161/3/6 166/3/6
f 162/3/6 163/3/6 167/3/6
f 167/3/6 163/3/6 168/3/6
f 163/1/6 164/1/6 169/1/6
f 168/3/6 163/3/6 169/3/6
f 164/1/6 165/1/6 169/1/6
f 169/1/6 165/1/6 170/1/6
f 165/2/6 166/2/6 171/2/6
f 170/1/6 165/1/6 171/1/6
f 171/2/6 166/2/6 172/2/6
f 167/1/6 168/1/6 173/1/6
f 169/2/6 170/2/6 174/2/6
f 173/1/6 168/1/6 174/1/6
f 168/2/6 169/2/6 174/2/6
f 174/2/6 170/2/6 175/2/6
f 171/3/6 172/3/6 176/3/6
f 175/2/6 170/2/6 176/2/6
f 170/3/6 171/3/6 176/3/6
f 176/3/6 172/3/6 177/3/6
f 177/3/6 172/3/6 178/3/6
f 174/3/6 175/3/6 180/3/6
f 173/3/6 174/3/6 180/3/6
f 180/3/6 175/3/6 181/3/6
f 175/1/6 176/1/6 182/1/6
f 181/3/6 175/3/6 182/3/6
f 176/1/6 177/1/6 182/1/6
f 177/2/6 178/2/6 183/2/6
f 182/1/6 177/1/6 183/1/6
f 183/2/6 178/2/6 184/2/6
f 180/2/6 181/2/6 185/2/6
f 179/2/6 180/2/6 185/2/6
f 185/2/6 181/2/6 186/2/6
f 186/2/6 181/2/6 187/2/6
f 187/2/6 181/2/6 188/2/6
f 181/1/6 182/1/6 189/1/6
f 188/2/6 181/2/6 189/2/6
f 183/3/6 184/3/6 190/3/6
f 189/1/6 182/1/6 190/1/6
f 182/3/6 183/3/6 190/3/6
f 190/3/6 184/3/6 191/3/6
f 191/3/6 184/3/6 192/3/6
f 192/3/6 184/3/6 193/3/6
f 185/3/6 186/3/6 194/3/6
f 194/3/6 186/3/6 195/3/6
f 187/3/6 188/3/6 196/3/6
f 196/3/6 188/3/6 197/3/6
f 188/2/6 189/2/6 198/2/6
f 197/3/6 188/3/6 198/3/6
f 189/2/6 190/2/6 198/2/6
f 190/2/6 191/2/6 198/2/6
f 198/2/6 191/2/6 199/2/6
f 191/1/6 192/1/6 200/1/6
f 199/2/6 191/2/6 200/2/6
f 192/2/6 193/2/6 201/2/6
f 200/1/6 192/1/6 201/1/6
f 194/1/6 195/1/6 202/1/6
f 196/1/6 197/1/6 202/1/6
f 195/1/6 196/1/6 202/1/6
f 197/3/6 198/3/6 203/3/6
f 202/1/6 197/1/6 203/1/6
f 198/3/6 199/3/6 203/3/6
f 200/2/6 201/2/6 204/2/6
f 203/3/6 199/3/6 204/3/6
f 199/2/6 200/2/6 204/2/6
f 204/2/6 201/2/6 205/2/6
f 201/2/6 193/2/6 206/2/6
f 205/2/6 201/2/6 206/2/6
f 204/1/6 205/1/6 207/1/6
f 203/1/6 204/1/6 207/1/6
f 207/1/6 205/1/6 208/1/6
f 205/3/6 206/3/6 209/3/6
f 208/1/6 205/1/6 209/1/6
f 209/3/6 206/3/6 210/3/6
f 210/3/6 206/3/6 211/3/6
f 207/2/6 208/2/6 212/2/6
f 208/3/6 209/3/6 213/3/6
f 212/2/6 208/2/6 213/2/6
f 209/3/6 210/3/6 213/3/6
f 213/3/6 210/3/6 214/3/6
f 210/1/6 211/1/6 215/1/6
f 214/3/6 210/3/6 215/3/6
f 215/1/6 211/1/6 216/1/6
f 216/1/6 211/1/6 217/1/6
f 213/3/6 214/3/6 218/3/6
f 212/3/6 213/3/6 218/3/6
f 218/3/6 214/3/6 219/3/6
f 214/1/6 215/1/6 220/1/6
f 219/3/6 214/3/6 220/3/6
f 215/1/6 216/1/6 220/1/6
f 220/1/6 216/1/6 221/1/6
f 216/2/6 217/2/6 222/2/6
f 221/1/6 216/1/6 222/1/6
f 222/2/6 217/2/6 223/2/6
f 218/1/6 219/1/6 224/1/6
f 220/2/6 221/2/6 225/2/6
f 224/1/6 219/1/6 225/1/6
f 219/2/6 220/2/6 225/2/6
f 222/3/6 223/3/6 226/3/6
f 225/2/6 221/2/6 226/2/6
f 221/3/6 222/3/6 226/3/6
f 226/3/6 223/3/6 227/3/6
