# MagicaVoxel @ Ephtracy

# group
o 

# material
mtllib uncooked_patty.mtl
usemtl palette

# normals
vn -1 0 0
vn 1 0 0
vn 0 0 1
vn 0 0 -1
vn 0 -1 0
vn 0 1 0

# texcoords
vt 0.841797 0.5
vt 0.845703 0.5
vt 0.849609 0.5
vt 0.853516 0.5
vt 0.857422 0.5

# verts
v -4.2 1.4 2
v -4.2 1.4 1.3
v -4.2 1.5 2
v -4.2 1.5 1.3
v -4.1 1.4 2.1
v -4.1 1.4 2
v -4.1 1.4 1.3
v -4.1 1.4 1.2
v -4.1 1.5 2.1
v -4.1 1.5 2
v -4.1 1.5 1.3
v -4.1 1.5 1.2
v -4 1.4 2.2
v -4 1.4 2.1
v -4 1.4 1.2
v -4 1.4 1.1
v -4 1.5 2.2
v -4 1.5 2.1
v -4 1.5 1.2
v -4 1.5 1.1
v -3.3 1.4 2.2
v -3.3 1.4 2.1
v -3.3 1.4 1.2
v -3.3 1.4 1.1
v -3.3 1.5 2.2
v -3.3 1.5 2.1
v -3.3 1.5 1.2
v -3.3 1.5 1.1
v -3.2 1.4 2.1
v -3.2 1.4 2
v -3.2 1.4 1.3
v -3.2 1.4 1.2
v -3.2 1.5 2.1
v -3.2 1.5 2
v -3.2 1.5 1.3
v -3.2 1.5 1.2
v -3.1 1.4 2
v -3.1 1.4 1.3
v -3.1 1.5 2
v -3.1 1.5 1.3
v -4 1.4 2.2
v -4 1.5 2.2
v -3.3 1.4 2.2
v -3.3 1.5 2.2
v -4.1 1.4 2.1
v -4.1 1.5 2.1
v -4 1.4 2.1
v -4 1.5 2.1
v -3.3 1.4 2.1
v -3.3 1.5 2.1
v -3.2 1.4 2.1
v -3.2 1.5 2.1
v -4.2 1.4 2
v -4.2 1.5 2
v -4.1 1.4 2
v -4.1 1.5 2
v -3.2 1.4 2
v -3.2 1.5 2
v -3.1 1.4 2
v -3.1 1.5 2
v -4.2 1.4 1.3
v -4.2 1.5 1.3
v -4.1 1.4 1.3
v -4.1 1.5 1.3
v -3.2 1.4 1.3
v -3.2 1.5 1.3
v -3.1 1.4 1.3
v -3.1 1.5 1.3
v -4.1 1.4 1.2
v -4.1 1.5 1.2
v -4 1.4 1.2
v -4 1.5 1.2
v -3.3 1.4 1.2
v -3.3 1.5 1.2
v -3.2 1.4 1.2
v -3.2 1.5 1.2
v -4 1.4 1.1
v -4 1.5 1.1
v -3.3 1.4 1.1
v -3.3 1.5 1.1
v -4 1.4 2.2
v -3.3 1.4 2.2
v -4.1 1.4 2.1
v -4 1.4 2.1
v -3.9 1.4 2.1
v -3.8 1.4 2.1
v -3.7 1.4 2.1
v -3.6 1.4 2.1
v -3.5 1.4 2.1
v -3.4 1.4 2.1
v -3.3 1.4 2.1
v -3.2 1.4 2.1
v -4.2 1.4 2
v -4.1 1.4 2
v -4 1.4 2
v -3.9 1.4 2
v -3.8 1.4 2
v -3.7 1.4 2
v -3.6 1.4 2
v -3.5 1.4 2
v -3.4 1.4 2
v -3.3 1.4 2
v -3.2 1.4 2
v -3.1 1.4 2
v -4.1 1.4 1.9
v -4 1.4 1.9
v -3.9 1.4 1.9
v -3.8 1.4 1.9
v -3.7 1.4 1.9
v -3.6 1.4 1.9
v -3.5 1.4 1.9
v -3.4 1.4 1.9
v -3.3 1.4 1.9
v -3.2 1.4 1.9
v -4.1 1.4 1.8
v -4 1.4 1.8
v -3.9 1.4 1.8
v -3.8 1.4 1.8
v -3.7 1.4 1.8
v -3.6 1.4 1.8
v -3.5 1.4 1.8
v -3.4 1.4 1.8
v -3.3 1.4 1.8
v -3.2 1.4 1.8
v -4.1 1.4 1.7
v -4 1.4 1.7
v -3.9 1.4 1.7
v -3.8 1.4 1.7
v -3.7 1.4 1.7
v -3.6 1.4 1.7
v -3.5 1.4 1.7
v -3.4 1.4 1.7
v -3.3 1.4 1.7
v -3.2 1.4 1.7
v -4.1 1.4 1.6
v -4 1.4 1.6
v -3.9 1.4 1.6
v -3.8 1.4 1.6
v -3.7 1.4 1.6
v -3.6 1.4 1.6
v -3.5 1.4 1.6
v -3.4 1.4 1.6
v -3.3 1.4 1.6
v -3.2 1.4 1.6
v -4.1 1.4 1.5
v -4 1.4 1.5
v -3.9 1.4 1.5
v -3.8 1.4 1.5
v -3.7 1.4 1.5
v -3.6 1.4 1.5
v -3.5 1.4 1.5
v -3.4 1.4 1.5
v -3.3 1.4 1.5
v -3.2 1.4 1.5
v -4 1.4 1.4
v -3.9 1.4 1.4
v -3.8 1.4 1.4
v -3.7 1.4 1.4
v -3.6 1.4 1.4
v -3.5 1.4 1.4
v -3.4 1.4 1.4
v -3.3 1.4 1.4
v -3.2 1.4 1.4
v -4.2 1.4 1.3
v -4.1 1.4 1.3
v -4 1.4 1.3
v -3.9 1.4 1.3
v -3.8 1.4 1.3
v -3.7 1.4 1.3
v -3.6 1.4 1.3
v -3.5 1.4 1.3
v -3.4 1.4 1.3
v -3.3 1.4 1.3
v -3.2 1.4 1.3
v -3.1 1.4 1.3
v -4.1 1.4 1.2
v -4 1.4 1.2
v -3.8 1.4 1.2
v -3.7 1.4 1.2
v -3.6 1.4 1.2
v -3.5 1.4 1.2
v -3.4 1.4 1.2
v -3.3 1.4 1.2
v -3.2 1.4 1.2
v -4 1.4 1.1
v -3.3 1.4 1.1
v -4 1.5 2.2
v -3.3 1.5 2.2
v -4.1 1.5 2.1
v -4 1.5 2.1
v -3.9 1.5 2.1
v -3.8 1.5 2.1
v -3.7 1.5 2.1
v -3.6 1.5 2.1
v -3.5 1.5 2.1
v -3.4 1.5 2.1
v -3.3 1.5 2.1
v -3.2 1.5 2.1
v -4.2 1.5 2
v -4.1 1.5 2
v -4 1.5 2
v -3.9 1.5 2
v -3.8 1.5 2
v -3.7 1.5 2
v -3.6 1.5 2
v -3.5 1.5 2
v -3.4 1.5 2
v -3.3 1.5 2
v -3.2 1.5 2
v -3.1 1.5 2
v -4.1 1.5 1.9
v -4 1.5 1.9
v -3.9 1.5 1.9
v -3.8 1.5 1.9
v -3.7 1.5 1.9
v -3.6 1.5 1.9
v -3.5 1.5 1.9
v -3.4 1.5 1.9
v -3.3 1.5 1.9
v -3.2 1.5 1.9
v -4.1 1.5 1.8
v -4 1.5 1.8
v -3.9 1.5 1.8
v -3.8 1.5 1.8
v -3.7 1.5 1.8
v -3.6 1.5 1.8
v -3.5 1.5 1.8
v -3.4 1.5 1.8
v -3.3 1.5 1.8
v -3.2 1.5 1.8
v -4.1 1.5 1.7
v -4 1.5 1.7
v -3.9 1.5 1.7
v -3.8 1.5 1.7
v -3.7 1.5 1.7
v -3.6 1.5 1.7
v -3.5 1.5 1.7
v -3.4 1.5 1.7
v -3.3 1.5 1.7
v -3.2 1.5 1.7
v -4.1 1.5 1.6
v -4 1.5 1.6
v -3.9 1.5 1.6
v -3.8 1.5 1.6
v -3.7 1.5 1.6
v -3.6 1.5 1.6
v -3.5 1.5 1.6
v -3.4 1.5 1.6
v -3.3 1.5 1.6
v -3.2 1.5 1.6
v -4.1 1.5 1.5
v -4 1.5 1.5
v -3.9 1.5 1.5
v -3.8 1.5 1.5
v -3.7 1.5 1.5
v -3.6 1.5 1.5
v -3.5 1.5 1.5
v -3.4 1.5 1.5
v -3.3 1.5 1.5
v -3.2 1.5 1.5
v -4 1.5 1.4
v -3.9 1.5 1.4
v -3.8 1.5 1.4
v -3.7 1.5 1.4
v -3.6 1.5 1.4
v -3.5 1.5 1.4
v -3.4 1.5 1.4
v -3.3 1.5 1.4
v -3.2 1.5 1.4
v -4.2 1.5 1.3
v -4.1 1.5 1.3
v -4 1.5 1.3
v -3.9 1.5 1.3
v -3.8 1.5 1.3
v -3.7 1.5 1.3
v -3.6 1.5 1.3
v -3.5 1.5 1.3
v -3.4 1.5 1.3
v -3.3 1.5 1.3
v -3.2 1.5 1.3
v -3.1 1.5 1.3
v -4.1 1.5 1.2
v -4 1.5 1.2
v -3.8 1.5 1.2
v -3.7 1.5 1.2
v -3.6 1.5 1.2
v -3.5 1.5 1.2
v -3.4 1.5 1.2
v -3.3 1.5 1.2
v -3.2 1.5 1.2
v -4 1.5 1.1
v -3.3 1.5 1.1

# faces
f 3/2/1 2/2/1 1/2/1
f 4/2/1 2/2/1 3/2/1
f 9/2/1 6/2/1 5/2/1
f 10/2/1 6/2/1 9/2/1
f 11/2/1 8/2/1 7/2/1
f 12/2/1 8/2/1 11/2/1
f 17/2/1 14/2/1 13/2/1
f 18/2/1 14/2/1 17/2/1
f 19/2/1 16/2/1 15/2/1
f 20/2/1 16/2/1 19/2/1
f 21/2/2 22/2/2 25/2/2
f 25/2/2 22/2/2 26/2/2
f 23/2/2 24/2/2 27/2/2
f 27/2/2 24/2/2 28/2/2
f 29/2/2 30/2/2 33/2/2
f 33/2/2 30/2/2 34/2/2
f 31/2/2 32/2/2 35/2/2
f 35/2/2 32/2/2 36/2/2
f 37/2/2 38/2/2 39/2/2
f 39/2/2 38/2/2 40/2/2
f 43/2/3 42/2/3 41/2/3
f 44/2/3 42/2/3 43/2/3
f 47/2/3 46/2/3 45/2/3
f 48/2/3 46/2/3 47/2/3
f 51/2/3 50/2/3 49/2/3
f 52/2/3 50/2/3 51/2/3
f 55/2/3 54/2/3 53/2/3
f 56/2/3 54/2/3 55/2/3
f 59/2/3 58/2/3 57/2/3
f 60/2/3 58/2/3 59/2/3
f 61/2/4 62/2/4 63/2/4
f 63/2/4 62/2/4 64/2/4
f 65/2/4 66/2/4 67/2/4
f 67/2/4 66/2/4 68/2/4
f 69/2/4 70/2/4 71/2/4
f 71/2/4 70/2/4 72/2/4
f 73/2/4 74/2/4 75/2/4
f 75/2/4 74/2/4 76/2/4
f 77/2/4 78/2/4 79/2/4
f 79/2/4 78/2/4 80/2/4
f 84/2/5 82/2/5 81/2/5
f 85/2/5 82/2/5 84/2/5
f 86/2/5 82/2/5 85/2/5
f 87/2/5 82/2/5 86/2/5
f 88/2/5 82/2/5 87/2/5
f 89/2/5 82/2/5 88/2/5
f 90/2/5 82/2/5 89/2/5
f 91/2/5 82/2/5 90/2/5
f 94/2/5 84/2/5 83/2/5
f 95/3/5 85/3/5 84/3/5
f 95/2/5 84/2/5 94/2/5
f 96/2/5 86/2/5 85/2/5
f 96/3/5 85/3/5 95/3/5
f 97/3/5 87/3/5 86/3/5
f 97/2/5 86/2/5 96/2/5
f 98/5/5 88/5/5 87/5/5
f 98/3/5 87/3/5 97/3/5
f 99/2/5 89/2/5 88/2/5
f 99/5/5 88/5/5 98/5/5
f 100/3/5 90/3/5 89/3/5
f 100/2/5 89/2/5 99/2/5
f 101/2/5 92/2/5 91/2/5
f 101/3/5 90/3/5 100/3/5
f 101/2/5 91/2/5 90/2/5
f 102/2/5 92/2/5 101/2/5
f 103/2/5 92/2/5 102/2/5
f 105/2/5 94/2/5 93/2/5
f 105/5/5 95/5/5 94/5/5
f 106/1/5 96/1/5 95/1/5
f 106/5/5 95/5/5 105/5/5
f 107/5/5 97/5/5 96/5/5
f 107/1/5 96/1/5 106/1/5
f 108/1/5 98/1/5 97/1/5
f 108/5/5 97/5/5 107/5/5
f 109/2/5 99/2/5 98/2/5
f 109/1/5 98/1/5 108/1/5
f 110/1/5 100/1/5 99/1/5
f 110/2/5 99/2/5 109/2/5
f 111/2/5 101/2/5 100/2/5
f 111/1/5 100/1/5 110/1/5
f 112/5/5 102/5/5 101/5/5
f 112/2/5 101/2/5 111/2/5
f 113/1/5 103/1/5 102/1/5
f 113/5/5 102/5/5 112/5/5
f 114/2/5 104/2/5 103/2/5
f 114/1/5 103/1/5 113/1/5
f 115/2/5 105/2/5 93/2/5
f 115/1/5 106/1/5 105/1/5
f 116/4/5 107/4/5 106/4/5
f 116/1/5 106/1/5 115/1/5
f 117/1/5 108/1/5 107/1/5
f 117/4/5 107/4/5 116/4/5
f 118/4/5 109/4/5 108/4/5
f 118/1/5 108/1/5 117/1/5
f 119/1/5 110/1/5 109/1/5
f 119/4/5 109/4/5 118/4/5
f 120/3/5 111/3/5 110/3/5
f 120/1/5 110/1/5 119/1/5
f 121/1/5 113/1/5 112/1/5
f 121/3/5 111/3/5 120/3/5
f 121/1/5 112/1/5 111/1/5
f 122/1/5 113/1/5 121/1/5
f 123/3/5 114/3/5 113/3/5
f 123/1/5 113/1/5 122/1/5
f 124/2/5 104/2/5 114/2/5
f 124/3/5 114/3/5 123/3/5
f 125/2/5 115/2/5 93/2/5
f 125/5/5 116/5/5 115/5/5
f 126/1/5 117/1/5 116/1/5
f 126/5/5 116/5/5 125/5/5
f 127/4/5 118/4/5 117/4/5
f 127/1/5 117/1/5 126/1/5
f 128/2/5 119/2/5 118/2/5
f 128/4/5 118/4/5 127/4/5
f 129/5/5 120/5/5 119/5/5
f 129/2/5 119/2/5 128/2/5
f 130/1/5 121/1/5 120/1/5
f 130/5/5 120/5/5 129/5/5
f 131/5/5 122/5/5 121/5/5
f 131/1/5 121/1/5 130/1/5
f 132/2/5 123/2/5 122/2/5
f 132/5/5 122/5/5 131/5/5
f 133/4/5 124/4/5 123/4/5
f 133/2/5 123/2/5 132/2/5
f 134/2/5 104/2/5 124/2/5
f 134/4/5 124/4/5 133/4/5
f 135/2/5 125/2/5 93/2/5
f 135/1/5 126/1/5 125/1/5
f 136/2/5 127/2/5 126/2/5
f 136/1/5 126/1/5 135/1/5
f 137/1/5 128/1/5 127/1/5
f 137/2/5 127/2/5 136/2/5
f 138/4/5 129/4/5 128/4/5
f 138/1/5 128/1/5 137/1/5
f 139/1/5 130/1/5 129/1/5
f 139/4/5 129/4/5 138/4/5
f 140/3/5 131/3/5 130/3/5
f 140/1/5 130/1/5 139/1/5
f 141/1/5 133/1/5 132/1/5
f 141/3/5 131/3/5 140/3/5
f 141/1/5 132/1/5 131/1/5
f 141/1/5 134/1/5 133/1/5
f 142/1/5 134/1/5 141/1/5
f 143/1/5 134/1/5 142/1/5
f 144/2/5 104/2/5 134/2/5
f 144/1/5 134/1/5 143/1/5
f 145/5/5 136/5/5 135/5/5
f 145/2/5 135/2/5 93/2/5
f 146/1/5 137/1/5 136/1/5
f 146/5/5 136/5/5 145/5/5
f 147/5/5 138/5/5 137/5/5
f 147/1/5 137/1/5 146/1/5
f 148/1/5 139/1/5 138/1/5
f 148/5/5 138/5/5 147/5/5
f 149/5/5 140/5/5 139/5/5
f 149/1/5 139/1/5 148/1/5
f 150/1/5 141/1/5 140/1/5
f 150/5/5 140/5/5 149/5/5
f 151/5/5 142/5/5 141/5/5
f 151/1/5 141/1/5 150/1/5
f 152/1/5 143/1/5 142/1/5
f 152/5/5 142/5/5 151/5/5
f 153/3/5 144/3/5 143/3/5
f 153/1/5 143/1/5 152/1/5
f 154/2/5 104/2/5 144/2/5
f 154/3/5 144/3/5 153/3/5
f 155/3/5 147/3/5 146/3/5
f 155/1/5 146/1/5 145/1/5
f 156/1/5 148/1/5 147/1/5
f 156/3/5 147/3/5 155/3/5
f 157/4/5 149/4/5 148/4/5
f 157/1/5 148/1/5 156/1/5
f 158/2/5 150/2/5 149/2/5
f 158/4/5 149/4/5 157/4/5
f 159/1/5 151/1/5 150/1/5
f 159/2/5 150/2/5 158/2/5
f 159/1/5 152/1/5 151/1/5
f 160/1/5 152/1/5 159/1/5
f 161/2/5 153/2/5 152/2/5
f 161/1/5 152/1/5 160/1/5
f 162/5/5 154/5/5 153/5/5
f 162/2/5 153/2/5 161/2/5
f 163/2/5 104/2/5 154/2/5
f 163/5/5 154/5/5 162/5/5
f 164/2/5 145/2/5 93/2/5
f 165/1/5 155/1/5 145/1/5
f 165/2/5 145/2/5 164/2/5
f 166/5/5 156/5/5 155/5/5
f 166/1/5 155/1/5 165/1/5
f 167/4/5 157/4/5 156/4/5
f 167/5/5 156/5/5 166/5/5
f 168/1/5 158/1/5 157/1/5
f 168/4/5 157/4/5 167/4/5
f 168/1/5 159/1/5 158/1/5
f 169/1/5 159/1/5 168/1/5
f 170/4/5 160/4/5 159/4/5
f 170/1/5 159/1/5 169/1/5
f 171/5/5 161/5/5 160/5/5
f 171/4/5 160/4/5 170/4/5
f 172/3/5 162/3/5 161/3/5
f 172/5/5 161/5/5 171/5/5
f 173/1/5 163/1/5 162/1/5
f 173/3/5 162/3/5 172/3/5
f 174/2/5 104/2/5 163/2/5
f 174/1/5 163/1/5 173/1/5
f 175/2/5 104/2/5 174/2/5
f 176/2/5 166/2/5 165/2/5
f 177/1/5 167/1/5 166/1/5
f 177/2/5 166/2/5 176/2/5
f 177/1/5 168/1/5 167/1/5
f 178/3/5 169/3/5 168/3/5
f 178/1/5 168/1/5 177/1/5
f 179/5/5 170/5/5 169/5/5
f 179/3/5 169/3/5 178/3/5
f 180/1/5 171/1/5 170/1/5
f 180/5/5 170/5/5 179/5/5
f 181/2/5 172/2/5 171/2/5
f 181/1/5 171/1/5 180/1/5
f 182/5/5 173/5/5 172/5/5
f 182/2/5 172/2/5 181/2/5
f 183/2/5 174/2/5 173/2/5
f 183/5/5 173/5/5 182/5/5
f 184/2/5 174/2/5 183/2/5
f 185/2/5 179/2/5 178/2/5
f 185/2/5 183/2/5 182/2/5
f 185/2/5 180/2/5 179/2/5
f 185/2/5 182/2/5 181/2/5
f 185/2/5 178/2/5 177/2/5
f 185/2/5 181/2/5 180/2/5
f 186/2/5 183/2/5 185/2/5
f 187/2/6 188/2/6 190/2/6
f 190/2/6 188/2/6 191/2/6
f 191/2/6 188/2/6 192/2/6
f 192/2/6 188/2/6 193/2/6
f 193/2/6 188/2/6 194/2/6
f 194/2/6 188/2/6 195/2/6
f 195/2/6 188/2/6 196/2/6
f 196/2/6 188/2/6 197/2/6
f 189/2/6 190/2/6 200/2/6
f 190/3/6 191/3/6 201/3/6
f 200/2/6 190/2/6 201/2/6
f 191/2/6 192/2/6 202/2/6
f 201/3/6 191/3/6 202/3/6
f 192/3/6 193/3/6 203/3/6
f 202/2/6 192/2/6 203/2/6
f 193/5/6 194/5/6 204/5/6
f 203/3/6 193/3/6 204/3/6
f 194/2/6 195/2/6 205/2/6
f 204/5/6 194/5/6 205/5/6
f 195/3/6 196/3/6 206/3/6
f 205/2/6 195/2/6 206/2/6
f 197/2/6 198/2/6 207/2/6
f 206/3/6 196/3/6 207/3/6
f 196/2/6 197/2/6 207/2/6
f 207/2/6 198/2/6 208/2/6
f 208/2/6 198/2/6 209/2/6
f 199/2/6 200/2/6 211/2/6
f 200/5/6 201/5/6 211/5/6
f 201/1/6 202/1/6 212/1/6
f 211/5/6 201/5/6 212/5/6
f 202/5/6 203/5/6 213/5/6
f 212/1/6 202/1/6 213/1/6
f 203/1/6 204/1/6 214/1/6
f 213/5/6 203/5/6 214/5/6
f 204/2/6 205/2/6 215/2/6
f 214/1/6 204/1/6 215/1/6
f 205/1/6 206/1/6 216/1/6
f 215/2/6 205/2/6 216/2/6
f 206/2/6 207/2/6 217/2/6
f 216/1/6 206/1/6 217/1/6
f 207/5/6 208/5/6 218/5/6
f 217/2/6 207/2/6 218/2/6
f 208/1/6 209/1/6 219/1/6
f 218/5/6 208/5/6 219/5/6
f 209/2/6 210/2/6 220/2/6
f 219/1/6 209/1/6 220/1/6
f 199/2/6 211/2/6 221/2/6
f 211/1/6 212/1/6 221/1/6
f 212/4/6 213/4/6 222/4/6
f 221/1/6 212/1/6 222/1/6
f 213/1/6 214/1/6 223/1/6
f 222/4/6 213/4/6 223/4/6
f 214/4/6 215/4/6 224/4/6
f 223/1/6 214/1/6 224/1/6
f 215/1/6 216/1/6 225/1/6
f 224/4/6 215/4/6 225/4/6
f 216/3/6 217/3/6 226/3/6
f 225/1/6 216/1/6 226/1/6
f 218/1/6 219/1/6 227/1/6
f 226/3/6 217/3/6 227/3/6
f 217/1/6 218/1/6 227/1/6
f 227/1/6 219/1/6 228/1/6
f 219/3/6 220/3/6 229/3/6
f 228/1/6 219/1/6 229/1/6
f 220/2/6 210/2/6 230/2/6
f 229/3/6 220/3/6 230/3/6
f 199/2/6 221/2/6 231/2/6
f 221/5/6 222/5/6 231/5/6
f 222/1/6 223/1/6 232/1/6
f 231/5/6 222/5/6 232/5/6
f 223/4/6 224/4/6 233/4/6
f 232/1/6 223/1/6 233/1/6
f 224/2/6 225/2/6 234/2/6
f 233/4/6 224/4/6 234/4/6
f 225/5/6 226/5/6 235/5/6
f 234/2/6 225/2/6 235/2/6
f 226/1/6 227/1/6 236/1/6
f 235/5/6 226/5/6 236/5/6
f 227/5/6 228/5/6 237/5/6
f 236/1/6 227/1/6 237/1/6
f 228/2/6 229/2/6 238/2/6
f 237/5/6 228/5/6 238/5/6
f 229/4/6 230/4/6 239/4/6
f 238/2/6 229/2/6 239/2/6
f 230/2/6 210/2/6 240/2/6
f 239/4/6 230/4/6 240/4/6
f 199/2/6 231/2/6 241/2/6
f 231/1/6 232/1/6 241/1/6
f 232/2/6 233/2/6 242/2/6
f 241/1/6 232/1/6 242/1/6
f 233/1/6 234/1/6 243/1/6
f 242/2/6 233/2/6 243/2/6
f 234/4/6 235/4/6 244/4/6
f 243/1/6 234/1/6 244/1/6
f 235/1/6 236/1/6 245/1/6
f 244/4/6 235/4/6 245/4/6
f 236/3/6 237/3/6 246/3/6
f 245/1/6 236/1/6 246/1/6
f 238/1/6 239/1/6 247/1/6
f 246/3/6 237/3/6 247/3/6
f 237/1/6 238/1/6 247/1/6
f 239/1/6 240/1/6 247/1/6
f 247/1/6 240/1/6 248/1/6
f 248/1/6 240/1/6 249/1/6
f 240/2/6 210/2/6 250/2/6
f 249/1/6 240/1/6 250/1/6
f 241/5/6 242/5/6 251/5/6
f 199/2/6 241/2/6 251/2/6
f 242/1/6 243/1/6 252/1/6
f 251/5/6 242/5/6 252/5/6
f 243/5/6 244/5/6 253/5/6
f 252/1/6 243/1/6 253/1/6
f 244/1/6 245/1/6 254/1/6
f 253/5/6 244/5/6 254/5/6
f 245/5/6 246/5/6 255/5/6
f 254/1/6 245/1/6 255/1/6
f 246/1/6 247/1/6 256/1/6
f 255/5/6 246/5/6 256/5/6
f 247/5/6 248/5/6 257/5/6
f 256/1/6 247/1/6 257/1/6
f 248/1/6 249/1/6 258/1/6
f 257/5/6 248/5/6 258/5/6
f 249/3/6 250/3/6 259/3/6
f 258/1/6 249/1/6 259/1/6
f 250/2/6 210/2/6 260/2/6
f 259/3/6 250/3/6 260/3/6
f 252/3/6 253/3/6 261/3/6
f 251/1/6 252/1/6 261/1/6
f 253/1/6 254/1/6 262/1/6
f 261/3/6 253/3/6 262/3/6
f 254/4/6 255/4/6 263/4/6
f 262/1/6 254/1/6 263/1/6
f 255/2/6 256/2/6 264/2/6
f 263/4/6 255/4/6 264/4/6
f 256/1/6 257/1/6 265/1/6
f 264/2/6 256/2/6 265/2/6
f 257/1/6 258/1/6 265/1/6
f 265/1/6 258/1/6 266/1/6
f 258/2/6 259/2/6 267/2/6
f 266/1/6 258/1/6 267/1/6
f 259/5/6 260/5/6 268/5/6
f 267/2/6 259/2/6 268/2/6
f 260/2/6 210/2/6 269/2/6
f 268/5/6 260/5/6 269/5/6
f 199/2/6 251/2/6 270/2/6
f 251/1/6 261/1/6 271/1/6
f 270/2/6 251/2/6 271/2/6
f 261/5/6 262/5/6 272/5/6
f 271/1/6 261/1/6 272/1/6
f 262/4/6 263/4/6 273/4/6
f 272/5/6 262/5/6 273/5/6
f 263/1/6 264/1/6 274/1/6
f 273/4/6 263/4/6 274/4/6
f 264/1/6 265/1/6 274/1/6
f 274/1/6 265/1/6 275/1/6
f 265/4/6 266/4/6 276/4/6
f 275/1/6 265/1/6 276/1/6
f 266/5/6 267/5/6 277/5/6
f 276/4/6 266/4/6 277/4/6
f 267/3/6 268/3/6 278/3/6
f 277/5/6 267/5/6 278/5/6
f 268/1/6 269/1/6 279/1/6
f 278/3/6 268/3/6 279/3/6
f 269/2/6 210/2/6 280/2/6
f 279/1/6 269/1/6 280/1/6
f 280/2/6 210/2/6 281/2/6
f 271/2/6 272/2/6 282/2/6
f 272/1/6 273/1/6 283/1/6
f 282/2/6 272/2/6 283/2/6
f 273/1/6 274/1/6 283/1/6
f 274/3/6 275/3/6 284/3/6
f 283/1/6 274/1/6 284/1/6
f 275/5/6 276/5/6 285/5/6
f 284/3/6 275/3/6 285/3/6
f 276/1/6 277/1/6 286/1/6
f 285/5/6 276/5/6 286/5/6
f 277/2/6 278/2/6 287/2/6
f 286/1/6 277/1/6 287/1/6
f 278/5/6 279/5/6 288/5/6
f 287/2/6 278/2/6 288/2/6
f 279/2/6 280/2/6 289/2/6
f 288/5/6 279/5/6 289/5/6
f 289/2/6 280/2/6 290/2/6
f 284/2/6 285/2/6 291/2/6
f 288/2/6 289/2/6 291/2/6
f 285/2/6 286/2/6 291/2/6
f 287/2/6 288/2/6 291/2/6
f 283/2/6 284/2/6 291/2/6
f 286/2/6 287/2/6 291/2/6
f 291/2/6 289/2/6 292/2/6
